%TF.GenerationSoftware,KiCad,Pcbnew,8.0.6*%
%TF.CreationDate,2025-05-21T19:35:09-04:00*%
%TF.ProjectId,ir_controller,69725f63-6f6e-4747-926f-6c6c65722e6b,rev?*%
%TF.SameCoordinates,Original*%
%TF.FileFunction,Legend,Top*%
%TF.FilePolarity,Positive*%
%FSLAX46Y46*%
G04 Gerber Fmt 4.6, Leading zero omitted, Abs format (unit mm)*
G04 Created by KiCad (PCBNEW 8.0.6) date 2025-05-21 19:35:09*
%MOMM*%
%LPD*%
G01*
G04 APERTURE LIST*
%ADD10C,0.100000*%
%ADD11C,0.150000*%
%ADD12C,0.120000*%
G04 APERTURE END LIST*
D10*
X56441065Y-35898960D02*
X56917255Y-35898960D01*
X56345827Y-36184675D02*
X56679160Y-35184675D01*
X56679160Y-35184675D02*
X57012493Y-36184675D01*
X57345827Y-36184675D02*
X57345827Y-35184675D01*
X57441065Y-35803722D02*
X57726779Y-36184675D01*
X57726779Y-35518008D02*
X57345827Y-35898960D01*
X58155351Y-36184675D02*
X58155351Y-35518008D01*
X58155351Y-35613246D02*
X58202970Y-35565627D01*
X58202970Y-35565627D02*
X58298208Y-35518008D01*
X58298208Y-35518008D02*
X58441065Y-35518008D01*
X58441065Y-35518008D02*
X58536303Y-35565627D01*
X58536303Y-35565627D02*
X58583922Y-35660865D01*
X58583922Y-35660865D02*
X58583922Y-36184675D01*
X58583922Y-35660865D02*
X58631541Y-35565627D01*
X58631541Y-35565627D02*
X58726779Y-35518008D01*
X58726779Y-35518008D02*
X58869636Y-35518008D01*
X58869636Y-35518008D02*
X58964875Y-35565627D01*
X58964875Y-35565627D02*
X59012494Y-35660865D01*
X59012494Y-35660865D02*
X59012494Y-36184675D01*
X59917255Y-36184675D02*
X59917255Y-35660865D01*
X59917255Y-35660865D02*
X59869636Y-35565627D01*
X59869636Y-35565627D02*
X59774398Y-35518008D01*
X59774398Y-35518008D02*
X59583922Y-35518008D01*
X59583922Y-35518008D02*
X59488684Y-35565627D01*
X59917255Y-36137056D02*
X59822017Y-36184675D01*
X59822017Y-36184675D02*
X59583922Y-36184675D01*
X59583922Y-36184675D02*
X59488684Y-36137056D01*
X59488684Y-36137056D02*
X59441065Y-36041817D01*
X59441065Y-36041817D02*
X59441065Y-35946579D01*
X59441065Y-35946579D02*
X59488684Y-35851341D01*
X59488684Y-35851341D02*
X59583922Y-35803722D01*
X59583922Y-35803722D02*
X59822017Y-35803722D01*
X59822017Y-35803722D02*
X59917255Y-35756103D01*
X60536303Y-36184675D02*
X60441065Y-36137056D01*
X60441065Y-36137056D02*
X60393446Y-36041817D01*
X60393446Y-36041817D02*
X60393446Y-35184675D01*
X61679161Y-36184675D02*
X61679161Y-35184675D01*
X61679161Y-35184675D02*
X62250589Y-36184675D01*
X62250589Y-36184675D02*
X62250589Y-35184675D01*
X63155351Y-36184675D02*
X63155351Y-35660865D01*
X63155351Y-35660865D02*
X63107732Y-35565627D01*
X63107732Y-35565627D02*
X63012494Y-35518008D01*
X63012494Y-35518008D02*
X62822018Y-35518008D01*
X62822018Y-35518008D02*
X62726780Y-35565627D01*
X63155351Y-36137056D02*
X63060113Y-36184675D01*
X63060113Y-36184675D02*
X62822018Y-36184675D01*
X62822018Y-36184675D02*
X62726780Y-36137056D01*
X62726780Y-36137056D02*
X62679161Y-36041817D01*
X62679161Y-36041817D02*
X62679161Y-35946579D01*
X62679161Y-35946579D02*
X62726780Y-35851341D01*
X62726780Y-35851341D02*
X62822018Y-35803722D01*
X62822018Y-35803722D02*
X63060113Y-35803722D01*
X63060113Y-35803722D02*
X63155351Y-35756103D01*
X63536304Y-35518008D02*
X64060113Y-35518008D01*
X64060113Y-35518008D02*
X63536304Y-36184675D01*
X63536304Y-36184675D02*
X64060113Y-36184675D01*
X64441066Y-36184675D02*
X64441066Y-35518008D01*
X64441066Y-35184675D02*
X64393447Y-35232294D01*
X64393447Y-35232294D02*
X64441066Y-35279913D01*
X64441066Y-35279913D02*
X64488685Y-35232294D01*
X64488685Y-35232294D02*
X64441066Y-35184675D01*
X64441066Y-35184675D02*
X64441066Y-35279913D01*
X64917256Y-36184675D02*
X64917256Y-35518008D01*
X64917256Y-35708484D02*
X64964875Y-35613246D01*
X64964875Y-35613246D02*
X65012494Y-35565627D01*
X65012494Y-35565627D02*
X65107732Y-35518008D01*
X65107732Y-35518008D02*
X65202970Y-35518008D01*
X56488684Y-37794619D02*
X56488684Y-36794619D01*
X56488684Y-36794619D02*
X56822017Y-37508904D01*
X56822017Y-37508904D02*
X57155350Y-36794619D01*
X57155350Y-36794619D02*
X57155350Y-37794619D01*
X58060112Y-37794619D02*
X58060112Y-37270809D01*
X58060112Y-37270809D02*
X58012493Y-37175571D01*
X58012493Y-37175571D02*
X57917255Y-37127952D01*
X57917255Y-37127952D02*
X57726779Y-37127952D01*
X57726779Y-37127952D02*
X57631541Y-37175571D01*
X58060112Y-37747000D02*
X57964874Y-37794619D01*
X57964874Y-37794619D02*
X57726779Y-37794619D01*
X57726779Y-37794619D02*
X57631541Y-37747000D01*
X57631541Y-37747000D02*
X57583922Y-37651761D01*
X57583922Y-37651761D02*
X57583922Y-37556523D01*
X57583922Y-37556523D02*
X57631541Y-37461285D01*
X57631541Y-37461285D02*
X57726779Y-37413666D01*
X57726779Y-37413666D02*
X57964874Y-37413666D01*
X57964874Y-37413666D02*
X58060112Y-37366047D01*
X58441065Y-37127952D02*
X58679160Y-37794619D01*
X58917255Y-37127952D02*
X58679160Y-37794619D01*
X58679160Y-37794619D02*
X58583922Y-38032714D01*
X58583922Y-38032714D02*
X58536303Y-38080333D01*
X58536303Y-38080333D02*
X58441065Y-38127952D01*
X60012494Y-36889857D02*
X60060113Y-36842238D01*
X60060113Y-36842238D02*
X60155351Y-36794619D01*
X60155351Y-36794619D02*
X60393446Y-36794619D01*
X60393446Y-36794619D02*
X60488684Y-36842238D01*
X60488684Y-36842238D02*
X60536303Y-36889857D01*
X60536303Y-36889857D02*
X60583922Y-36985095D01*
X60583922Y-36985095D02*
X60583922Y-37080333D01*
X60583922Y-37080333D02*
X60536303Y-37223190D01*
X60536303Y-37223190D02*
X59964875Y-37794619D01*
X59964875Y-37794619D02*
X60583922Y-37794619D01*
X61202970Y-36794619D02*
X61298208Y-36794619D01*
X61298208Y-36794619D02*
X61393446Y-36842238D01*
X61393446Y-36842238D02*
X61441065Y-36889857D01*
X61441065Y-36889857D02*
X61488684Y-36985095D01*
X61488684Y-36985095D02*
X61536303Y-37175571D01*
X61536303Y-37175571D02*
X61536303Y-37413666D01*
X61536303Y-37413666D02*
X61488684Y-37604142D01*
X61488684Y-37604142D02*
X61441065Y-37699380D01*
X61441065Y-37699380D02*
X61393446Y-37747000D01*
X61393446Y-37747000D02*
X61298208Y-37794619D01*
X61298208Y-37794619D02*
X61202970Y-37794619D01*
X61202970Y-37794619D02*
X61107732Y-37747000D01*
X61107732Y-37747000D02*
X61060113Y-37699380D01*
X61060113Y-37699380D02*
X61012494Y-37604142D01*
X61012494Y-37604142D02*
X60964875Y-37413666D01*
X60964875Y-37413666D02*
X60964875Y-37175571D01*
X60964875Y-37175571D02*
X61012494Y-36985095D01*
X61012494Y-36985095D02*
X61060113Y-36889857D01*
X61060113Y-36889857D02*
X61107732Y-36842238D01*
X61107732Y-36842238D02*
X61202970Y-36794619D01*
X61917256Y-36889857D02*
X61964875Y-36842238D01*
X61964875Y-36842238D02*
X62060113Y-36794619D01*
X62060113Y-36794619D02*
X62298208Y-36794619D01*
X62298208Y-36794619D02*
X62393446Y-36842238D01*
X62393446Y-36842238D02*
X62441065Y-36889857D01*
X62441065Y-36889857D02*
X62488684Y-36985095D01*
X62488684Y-36985095D02*
X62488684Y-37080333D01*
X62488684Y-37080333D02*
X62441065Y-37223190D01*
X62441065Y-37223190D02*
X61869637Y-37794619D01*
X61869637Y-37794619D02*
X62488684Y-37794619D01*
X63393446Y-36794619D02*
X62917256Y-36794619D01*
X62917256Y-36794619D02*
X62869637Y-37270809D01*
X62869637Y-37270809D02*
X62917256Y-37223190D01*
X62917256Y-37223190D02*
X63012494Y-37175571D01*
X63012494Y-37175571D02*
X63250589Y-37175571D01*
X63250589Y-37175571D02*
X63345827Y-37223190D01*
X63345827Y-37223190D02*
X63393446Y-37270809D01*
X63393446Y-37270809D02*
X63441065Y-37366047D01*
X63441065Y-37366047D02*
X63441065Y-37604142D01*
X63441065Y-37604142D02*
X63393446Y-37699380D01*
X63393446Y-37699380D02*
X63345827Y-37747000D01*
X63345827Y-37747000D02*
X63250589Y-37794619D01*
X63250589Y-37794619D02*
X63012494Y-37794619D01*
X63012494Y-37794619D02*
X62917256Y-37747000D01*
X62917256Y-37747000D02*
X62869637Y-37699380D01*
D11*
X38416467Y-46663200D02*
X38559324Y-46710819D01*
X38559324Y-46710819D02*
X38797419Y-46710819D01*
X38797419Y-46710819D02*
X38892657Y-46663200D01*
X38892657Y-46663200D02*
X38940276Y-46615580D01*
X38940276Y-46615580D02*
X38987895Y-46520342D01*
X38987895Y-46520342D02*
X38987895Y-46425104D01*
X38987895Y-46425104D02*
X38940276Y-46329866D01*
X38940276Y-46329866D02*
X38892657Y-46282247D01*
X38892657Y-46282247D02*
X38797419Y-46234628D01*
X38797419Y-46234628D02*
X38606943Y-46187009D01*
X38606943Y-46187009D02*
X38511705Y-46139390D01*
X38511705Y-46139390D02*
X38464086Y-46091771D01*
X38464086Y-46091771D02*
X38416467Y-45996533D01*
X38416467Y-45996533D02*
X38416467Y-45901295D01*
X38416467Y-45901295D02*
X38464086Y-45806057D01*
X38464086Y-45806057D02*
X38511705Y-45758438D01*
X38511705Y-45758438D02*
X38606943Y-45710819D01*
X38606943Y-45710819D02*
X38845038Y-45710819D01*
X38845038Y-45710819D02*
X38987895Y-45758438D01*
X39321229Y-45710819D02*
X39559324Y-46710819D01*
X39559324Y-46710819D02*
X39749800Y-45996533D01*
X39749800Y-45996533D02*
X39940276Y-46710819D01*
X39940276Y-46710819D02*
X40178372Y-45710819D01*
X41083133Y-46710819D02*
X40511705Y-46710819D01*
X40797419Y-46710819D02*
X40797419Y-45710819D01*
X40797419Y-45710819D02*
X40702181Y-45853676D01*
X40702181Y-45853676D02*
X40606943Y-45948914D01*
X40606943Y-45948914D02*
X40511705Y-45996533D01*
X46416267Y-55017200D02*
X46559124Y-55064819D01*
X46559124Y-55064819D02*
X46797219Y-55064819D01*
X46797219Y-55064819D02*
X46892457Y-55017200D01*
X46892457Y-55017200D02*
X46940076Y-54969580D01*
X46940076Y-54969580D02*
X46987695Y-54874342D01*
X46987695Y-54874342D02*
X46987695Y-54779104D01*
X46987695Y-54779104D02*
X46940076Y-54683866D01*
X46940076Y-54683866D02*
X46892457Y-54636247D01*
X46892457Y-54636247D02*
X46797219Y-54588628D01*
X46797219Y-54588628D02*
X46606743Y-54541009D01*
X46606743Y-54541009D02*
X46511505Y-54493390D01*
X46511505Y-54493390D02*
X46463886Y-54445771D01*
X46463886Y-54445771D02*
X46416267Y-54350533D01*
X46416267Y-54350533D02*
X46416267Y-54255295D01*
X46416267Y-54255295D02*
X46463886Y-54160057D01*
X46463886Y-54160057D02*
X46511505Y-54112438D01*
X46511505Y-54112438D02*
X46606743Y-54064819D01*
X46606743Y-54064819D02*
X46844838Y-54064819D01*
X46844838Y-54064819D02*
X46987695Y-54112438D01*
X47321029Y-54064819D02*
X47559124Y-55064819D01*
X47559124Y-55064819D02*
X47749600Y-54350533D01*
X47749600Y-54350533D02*
X47940076Y-55064819D01*
X47940076Y-55064819D02*
X48178172Y-54064819D01*
X48511505Y-54160057D02*
X48559124Y-54112438D01*
X48559124Y-54112438D02*
X48654362Y-54064819D01*
X48654362Y-54064819D02*
X48892457Y-54064819D01*
X48892457Y-54064819D02*
X48987695Y-54112438D01*
X48987695Y-54112438D02*
X49035314Y-54160057D01*
X49035314Y-54160057D02*
X49082933Y-54255295D01*
X49082933Y-54255295D02*
X49082933Y-54350533D01*
X49082933Y-54350533D02*
X49035314Y-54493390D01*
X49035314Y-54493390D02*
X48463886Y-55064819D01*
X48463886Y-55064819D02*
X49082933Y-55064819D01*
X34823495Y-36876919D02*
X34823495Y-37686442D01*
X34823495Y-37686442D02*
X34871114Y-37781680D01*
X34871114Y-37781680D02*
X34918733Y-37829300D01*
X34918733Y-37829300D02*
X35013971Y-37876919D01*
X35013971Y-37876919D02*
X35204447Y-37876919D01*
X35204447Y-37876919D02*
X35299685Y-37829300D01*
X35299685Y-37829300D02*
X35347304Y-37781680D01*
X35347304Y-37781680D02*
X35394923Y-37686442D01*
X35394923Y-37686442D02*
X35394923Y-36876919D01*
X35775876Y-36876919D02*
X36394923Y-36876919D01*
X36394923Y-36876919D02*
X36061590Y-37257871D01*
X36061590Y-37257871D02*
X36204447Y-37257871D01*
X36204447Y-37257871D02*
X36299685Y-37305490D01*
X36299685Y-37305490D02*
X36347304Y-37353109D01*
X36347304Y-37353109D02*
X36394923Y-37448347D01*
X36394923Y-37448347D02*
X36394923Y-37686442D01*
X36394923Y-37686442D02*
X36347304Y-37781680D01*
X36347304Y-37781680D02*
X36299685Y-37829300D01*
X36299685Y-37829300D02*
X36204447Y-37876919D01*
X36204447Y-37876919D02*
X35918733Y-37876919D01*
X35918733Y-37876919D02*
X35823495Y-37829300D01*
X35823495Y-37829300D02*
X35775876Y-37781680D01*
X60317895Y-38985819D02*
X60317895Y-39795342D01*
X60317895Y-39795342D02*
X60365514Y-39890580D01*
X60365514Y-39890580D02*
X60413133Y-39938200D01*
X60413133Y-39938200D02*
X60508371Y-39985819D01*
X60508371Y-39985819D02*
X60698847Y-39985819D01*
X60698847Y-39985819D02*
X60794085Y-39938200D01*
X60794085Y-39938200D02*
X60841704Y-39890580D01*
X60841704Y-39890580D02*
X60889323Y-39795342D01*
X60889323Y-39795342D02*
X60889323Y-38985819D01*
X61317895Y-39081057D02*
X61365514Y-39033438D01*
X61365514Y-39033438D02*
X61460752Y-38985819D01*
X61460752Y-38985819D02*
X61698847Y-38985819D01*
X61698847Y-38985819D02*
X61794085Y-39033438D01*
X61794085Y-39033438D02*
X61841704Y-39081057D01*
X61841704Y-39081057D02*
X61889323Y-39176295D01*
X61889323Y-39176295D02*
X61889323Y-39271533D01*
X61889323Y-39271533D02*
X61841704Y-39414390D01*
X61841704Y-39414390D02*
X61270276Y-39985819D01*
X61270276Y-39985819D02*
X61889323Y-39985819D01*
X47714095Y-42567219D02*
X47714095Y-43376742D01*
X47714095Y-43376742D02*
X47761714Y-43471980D01*
X47761714Y-43471980D02*
X47809333Y-43519600D01*
X47809333Y-43519600D02*
X47904571Y-43567219D01*
X47904571Y-43567219D02*
X48095047Y-43567219D01*
X48095047Y-43567219D02*
X48190285Y-43519600D01*
X48190285Y-43519600D02*
X48237904Y-43471980D01*
X48237904Y-43471980D02*
X48285523Y-43376742D01*
X48285523Y-43376742D02*
X48285523Y-42567219D01*
X49285523Y-43567219D02*
X48714095Y-43567219D01*
X48999809Y-43567219D02*
X48999809Y-42567219D01*
X48999809Y-42567219D02*
X48904571Y-42710076D01*
X48904571Y-42710076D02*
X48809333Y-42805314D01*
X48809333Y-42805314D02*
X48714095Y-42852933D01*
X53863419Y-49608266D02*
X53387228Y-49941599D01*
X53863419Y-50179694D02*
X52863419Y-50179694D01*
X52863419Y-50179694D02*
X52863419Y-49798742D01*
X52863419Y-49798742D02*
X52911038Y-49703504D01*
X52911038Y-49703504D02*
X52958657Y-49655885D01*
X52958657Y-49655885D02*
X53053895Y-49608266D01*
X53053895Y-49608266D02*
X53196752Y-49608266D01*
X53196752Y-49608266D02*
X53291990Y-49655885D01*
X53291990Y-49655885D02*
X53339609Y-49703504D01*
X53339609Y-49703504D02*
X53387228Y-49798742D01*
X53387228Y-49798742D02*
X53387228Y-50179694D01*
X53863419Y-49132075D02*
X53863419Y-48941599D01*
X53863419Y-48941599D02*
X53815800Y-48846361D01*
X53815800Y-48846361D02*
X53768180Y-48798742D01*
X53768180Y-48798742D02*
X53625323Y-48703504D01*
X53625323Y-48703504D02*
X53434847Y-48655885D01*
X53434847Y-48655885D02*
X53053895Y-48655885D01*
X53053895Y-48655885D02*
X52958657Y-48703504D01*
X52958657Y-48703504D02*
X52911038Y-48751123D01*
X52911038Y-48751123D02*
X52863419Y-48846361D01*
X52863419Y-48846361D02*
X52863419Y-49036837D01*
X52863419Y-49036837D02*
X52911038Y-49132075D01*
X52911038Y-49132075D02*
X52958657Y-49179694D01*
X52958657Y-49179694D02*
X53053895Y-49227313D01*
X53053895Y-49227313D02*
X53291990Y-49227313D01*
X53291990Y-49227313D02*
X53387228Y-49179694D01*
X53387228Y-49179694D02*
X53434847Y-49132075D01*
X53434847Y-49132075D02*
X53482466Y-49036837D01*
X53482466Y-49036837D02*
X53482466Y-48846361D01*
X53482466Y-48846361D02*
X53434847Y-48751123D01*
X53434847Y-48751123D02*
X53387228Y-48703504D01*
X53387228Y-48703504D02*
X53291990Y-48655885D01*
X44220133Y-41878419D02*
X43886800Y-41402228D01*
X43648705Y-41878419D02*
X43648705Y-40878419D01*
X43648705Y-40878419D02*
X44029657Y-40878419D01*
X44029657Y-40878419D02*
X44124895Y-40926038D01*
X44124895Y-40926038D02*
X44172514Y-40973657D01*
X44172514Y-40973657D02*
X44220133Y-41068895D01*
X44220133Y-41068895D02*
X44220133Y-41211752D01*
X44220133Y-41211752D02*
X44172514Y-41306990D01*
X44172514Y-41306990D02*
X44124895Y-41354609D01*
X44124895Y-41354609D02*
X44029657Y-41402228D01*
X44029657Y-41402228D02*
X43648705Y-41402228D01*
X44791562Y-41306990D02*
X44696324Y-41259371D01*
X44696324Y-41259371D02*
X44648705Y-41211752D01*
X44648705Y-41211752D02*
X44601086Y-41116514D01*
X44601086Y-41116514D02*
X44601086Y-41068895D01*
X44601086Y-41068895D02*
X44648705Y-40973657D01*
X44648705Y-40973657D02*
X44696324Y-40926038D01*
X44696324Y-40926038D02*
X44791562Y-40878419D01*
X44791562Y-40878419D02*
X44982038Y-40878419D01*
X44982038Y-40878419D02*
X45077276Y-40926038D01*
X45077276Y-40926038D02*
X45124895Y-40973657D01*
X45124895Y-40973657D02*
X45172514Y-41068895D01*
X45172514Y-41068895D02*
X45172514Y-41116514D01*
X45172514Y-41116514D02*
X45124895Y-41211752D01*
X45124895Y-41211752D02*
X45077276Y-41259371D01*
X45077276Y-41259371D02*
X44982038Y-41306990D01*
X44982038Y-41306990D02*
X44791562Y-41306990D01*
X44791562Y-41306990D02*
X44696324Y-41354609D01*
X44696324Y-41354609D02*
X44648705Y-41402228D01*
X44648705Y-41402228D02*
X44601086Y-41497466D01*
X44601086Y-41497466D02*
X44601086Y-41687942D01*
X44601086Y-41687942D02*
X44648705Y-41783180D01*
X44648705Y-41783180D02*
X44696324Y-41830800D01*
X44696324Y-41830800D02*
X44791562Y-41878419D01*
X44791562Y-41878419D02*
X44982038Y-41878419D01*
X44982038Y-41878419D02*
X45077276Y-41830800D01*
X45077276Y-41830800D02*
X45124895Y-41783180D01*
X45124895Y-41783180D02*
X45172514Y-41687942D01*
X45172514Y-41687942D02*
X45172514Y-41497466D01*
X45172514Y-41497466D02*
X45124895Y-41402228D01*
X45124895Y-41402228D02*
X45077276Y-41354609D01*
X45077276Y-41354609D02*
X44982038Y-41306990D01*
X48221133Y-41878419D02*
X47887800Y-41402228D01*
X47649705Y-41878419D02*
X47649705Y-40878419D01*
X47649705Y-40878419D02*
X48030657Y-40878419D01*
X48030657Y-40878419D02*
X48125895Y-40926038D01*
X48125895Y-40926038D02*
X48173514Y-40973657D01*
X48173514Y-40973657D02*
X48221133Y-41068895D01*
X48221133Y-41068895D02*
X48221133Y-41211752D01*
X48221133Y-41211752D02*
X48173514Y-41306990D01*
X48173514Y-41306990D02*
X48125895Y-41354609D01*
X48125895Y-41354609D02*
X48030657Y-41402228D01*
X48030657Y-41402228D02*
X47649705Y-41402228D01*
X48554467Y-40878419D02*
X49221133Y-40878419D01*
X49221133Y-40878419D02*
X48792562Y-41878419D01*
X51993533Y-41903819D02*
X51660200Y-41427628D01*
X51422105Y-41903819D02*
X51422105Y-40903819D01*
X51422105Y-40903819D02*
X51803057Y-40903819D01*
X51803057Y-40903819D02*
X51898295Y-40951438D01*
X51898295Y-40951438D02*
X51945914Y-40999057D01*
X51945914Y-40999057D02*
X51993533Y-41094295D01*
X51993533Y-41094295D02*
X51993533Y-41237152D01*
X51993533Y-41237152D02*
X51945914Y-41332390D01*
X51945914Y-41332390D02*
X51898295Y-41380009D01*
X51898295Y-41380009D02*
X51803057Y-41427628D01*
X51803057Y-41427628D02*
X51422105Y-41427628D01*
X52850676Y-40903819D02*
X52660200Y-40903819D01*
X52660200Y-40903819D02*
X52564962Y-40951438D01*
X52564962Y-40951438D02*
X52517343Y-40999057D01*
X52517343Y-40999057D02*
X52422105Y-41141914D01*
X52422105Y-41141914D02*
X52374486Y-41332390D01*
X52374486Y-41332390D02*
X52374486Y-41713342D01*
X52374486Y-41713342D02*
X52422105Y-41808580D01*
X52422105Y-41808580D02*
X52469724Y-41856200D01*
X52469724Y-41856200D02*
X52564962Y-41903819D01*
X52564962Y-41903819D02*
X52755438Y-41903819D01*
X52755438Y-41903819D02*
X52850676Y-41856200D01*
X52850676Y-41856200D02*
X52898295Y-41808580D01*
X52898295Y-41808580D02*
X52945914Y-41713342D01*
X52945914Y-41713342D02*
X52945914Y-41475247D01*
X52945914Y-41475247D02*
X52898295Y-41380009D01*
X52898295Y-41380009D02*
X52850676Y-41332390D01*
X52850676Y-41332390D02*
X52755438Y-41284771D01*
X52755438Y-41284771D02*
X52564962Y-41284771D01*
X52564962Y-41284771D02*
X52469724Y-41332390D01*
X52469724Y-41332390D02*
X52422105Y-41380009D01*
X52422105Y-41380009D02*
X52374486Y-41475247D01*
X51001133Y-53380819D02*
X50667800Y-52904628D01*
X50429705Y-53380819D02*
X50429705Y-52380819D01*
X50429705Y-52380819D02*
X50810657Y-52380819D01*
X50810657Y-52380819D02*
X50905895Y-52428438D01*
X50905895Y-52428438D02*
X50953514Y-52476057D01*
X50953514Y-52476057D02*
X51001133Y-52571295D01*
X51001133Y-52571295D02*
X51001133Y-52714152D01*
X51001133Y-52714152D02*
X50953514Y-52809390D01*
X50953514Y-52809390D02*
X50905895Y-52857009D01*
X50905895Y-52857009D02*
X50810657Y-52904628D01*
X50810657Y-52904628D02*
X50429705Y-52904628D01*
X51905895Y-52380819D02*
X51429705Y-52380819D01*
X51429705Y-52380819D02*
X51382086Y-52857009D01*
X51382086Y-52857009D02*
X51429705Y-52809390D01*
X51429705Y-52809390D02*
X51524943Y-52761771D01*
X51524943Y-52761771D02*
X51763038Y-52761771D01*
X51763038Y-52761771D02*
X51858276Y-52809390D01*
X51858276Y-52809390D02*
X51905895Y-52857009D01*
X51905895Y-52857009D02*
X51953514Y-52952247D01*
X51953514Y-52952247D02*
X51953514Y-53190342D01*
X51953514Y-53190342D02*
X51905895Y-53285580D01*
X51905895Y-53285580D02*
X51858276Y-53333200D01*
X51858276Y-53333200D02*
X51763038Y-53380819D01*
X51763038Y-53380819D02*
X51524943Y-53380819D01*
X51524943Y-53380819D02*
X51429705Y-53333200D01*
X51429705Y-53333200D02*
X51382086Y-53285580D01*
X42306419Y-45441666D02*
X41830228Y-45774999D01*
X42306419Y-46013094D02*
X41306419Y-46013094D01*
X41306419Y-46013094D02*
X41306419Y-45632142D01*
X41306419Y-45632142D02*
X41354038Y-45536904D01*
X41354038Y-45536904D02*
X41401657Y-45489285D01*
X41401657Y-45489285D02*
X41496895Y-45441666D01*
X41496895Y-45441666D02*
X41639752Y-45441666D01*
X41639752Y-45441666D02*
X41734990Y-45489285D01*
X41734990Y-45489285D02*
X41782609Y-45536904D01*
X41782609Y-45536904D02*
X41830228Y-45632142D01*
X41830228Y-45632142D02*
X41830228Y-46013094D01*
X41639752Y-44584523D02*
X42306419Y-44584523D01*
X41258800Y-44822618D02*
X41973085Y-45060713D01*
X41973085Y-45060713D02*
X41973085Y-44441666D01*
X53863419Y-45480266D02*
X53387228Y-45813599D01*
X53863419Y-46051694D02*
X52863419Y-46051694D01*
X52863419Y-46051694D02*
X52863419Y-45670742D01*
X52863419Y-45670742D02*
X52911038Y-45575504D01*
X52911038Y-45575504D02*
X52958657Y-45527885D01*
X52958657Y-45527885D02*
X53053895Y-45480266D01*
X53053895Y-45480266D02*
X53196752Y-45480266D01*
X53196752Y-45480266D02*
X53291990Y-45527885D01*
X53291990Y-45527885D02*
X53339609Y-45575504D01*
X53339609Y-45575504D02*
X53387228Y-45670742D01*
X53387228Y-45670742D02*
X53387228Y-46051694D01*
X52863419Y-45146932D02*
X52863419Y-44527885D01*
X52863419Y-44527885D02*
X53244371Y-44861218D01*
X53244371Y-44861218D02*
X53244371Y-44718361D01*
X53244371Y-44718361D02*
X53291990Y-44623123D01*
X53291990Y-44623123D02*
X53339609Y-44575504D01*
X53339609Y-44575504D02*
X53434847Y-44527885D01*
X53434847Y-44527885D02*
X53672942Y-44527885D01*
X53672942Y-44527885D02*
X53768180Y-44575504D01*
X53768180Y-44575504D02*
X53815800Y-44623123D01*
X53815800Y-44623123D02*
X53863419Y-44718361D01*
X53863419Y-44718361D02*
X53863419Y-45004075D01*
X53863419Y-45004075D02*
X53815800Y-45099313D01*
X53815800Y-45099313D02*
X53768180Y-45146932D01*
X60869533Y-44199219D02*
X60536200Y-43723028D01*
X60298105Y-44199219D02*
X60298105Y-43199219D01*
X60298105Y-43199219D02*
X60679057Y-43199219D01*
X60679057Y-43199219D02*
X60774295Y-43246838D01*
X60774295Y-43246838D02*
X60821914Y-43294457D01*
X60821914Y-43294457D02*
X60869533Y-43389695D01*
X60869533Y-43389695D02*
X60869533Y-43532552D01*
X60869533Y-43532552D02*
X60821914Y-43627790D01*
X60821914Y-43627790D02*
X60774295Y-43675409D01*
X60774295Y-43675409D02*
X60679057Y-43723028D01*
X60679057Y-43723028D02*
X60298105Y-43723028D01*
X61250486Y-43294457D02*
X61298105Y-43246838D01*
X61298105Y-43246838D02*
X61393343Y-43199219D01*
X61393343Y-43199219D02*
X61631438Y-43199219D01*
X61631438Y-43199219D02*
X61726676Y-43246838D01*
X61726676Y-43246838D02*
X61774295Y-43294457D01*
X61774295Y-43294457D02*
X61821914Y-43389695D01*
X61821914Y-43389695D02*
X61821914Y-43484933D01*
X61821914Y-43484933D02*
X61774295Y-43627790D01*
X61774295Y-43627790D02*
X61202867Y-44199219D01*
X61202867Y-44199219D02*
X61821914Y-44199219D01*
X55649019Y-42076666D02*
X55172828Y-42409999D01*
X55649019Y-42648094D02*
X54649019Y-42648094D01*
X54649019Y-42648094D02*
X54649019Y-42267142D01*
X54649019Y-42267142D02*
X54696638Y-42171904D01*
X54696638Y-42171904D02*
X54744257Y-42124285D01*
X54744257Y-42124285D02*
X54839495Y-42076666D01*
X54839495Y-42076666D02*
X54982352Y-42076666D01*
X54982352Y-42076666D02*
X55077590Y-42124285D01*
X55077590Y-42124285D02*
X55125209Y-42171904D01*
X55125209Y-42171904D02*
X55172828Y-42267142D01*
X55172828Y-42267142D02*
X55172828Y-42648094D01*
X55649019Y-41124285D02*
X55649019Y-41695713D01*
X55649019Y-41409999D02*
X54649019Y-41409999D01*
X54649019Y-41409999D02*
X54791876Y-41505237D01*
X54791876Y-41505237D02*
X54887114Y-41600475D01*
X54887114Y-41600475D02*
X54934733Y-41695713D01*
X55248133Y-35419380D02*
X55248133Y-34705095D01*
X55248133Y-34705095D02*
X55295752Y-34562238D01*
X55295752Y-34562238D02*
X55390990Y-34467000D01*
X55390990Y-34467000D02*
X55533847Y-34419380D01*
X55533847Y-34419380D02*
X55629085Y-34419380D01*
X54248133Y-34419380D02*
X54819561Y-34419380D01*
X54533847Y-34419380D02*
X54533847Y-35419380D01*
X54533847Y-35419380D02*
X54629085Y-35276523D01*
X54629085Y-35276523D02*
X54724323Y-35181285D01*
X54724323Y-35181285D02*
X54819561Y-35133666D01*
X56809819Y-50242594D02*
X55809819Y-50242594D01*
X55809819Y-50242594D02*
X55809819Y-50004499D01*
X55809819Y-50004499D02*
X55857438Y-49861642D01*
X55857438Y-49861642D02*
X55952676Y-49766404D01*
X55952676Y-49766404D02*
X56047914Y-49718785D01*
X56047914Y-49718785D02*
X56238390Y-49671166D01*
X56238390Y-49671166D02*
X56381247Y-49671166D01*
X56381247Y-49671166D02*
X56571723Y-49718785D01*
X56571723Y-49718785D02*
X56666961Y-49766404D01*
X56666961Y-49766404D02*
X56762200Y-49861642D01*
X56762200Y-49861642D02*
X56809819Y-50004499D01*
X56809819Y-50004499D02*
X56809819Y-50242594D01*
X55905057Y-49290213D02*
X55857438Y-49242594D01*
X55857438Y-49242594D02*
X55809819Y-49147356D01*
X55809819Y-49147356D02*
X55809819Y-48909261D01*
X55809819Y-48909261D02*
X55857438Y-48814023D01*
X55857438Y-48814023D02*
X55905057Y-48766404D01*
X55905057Y-48766404D02*
X56000295Y-48718785D01*
X56000295Y-48718785D02*
X56095533Y-48718785D01*
X56095533Y-48718785D02*
X56238390Y-48766404D01*
X56238390Y-48766404D02*
X56809819Y-49337832D01*
X56809819Y-49337832D02*
X56809819Y-48718785D01*
X56809819Y-46000994D02*
X55809819Y-46000994D01*
X55809819Y-46000994D02*
X55809819Y-45762899D01*
X55809819Y-45762899D02*
X55857438Y-45620042D01*
X55857438Y-45620042D02*
X55952676Y-45524804D01*
X55952676Y-45524804D02*
X56047914Y-45477185D01*
X56047914Y-45477185D02*
X56238390Y-45429566D01*
X56238390Y-45429566D02*
X56381247Y-45429566D01*
X56381247Y-45429566D02*
X56571723Y-45477185D01*
X56571723Y-45477185D02*
X56666961Y-45524804D01*
X56666961Y-45524804D02*
X56762200Y-45620042D01*
X56762200Y-45620042D02*
X56809819Y-45762899D01*
X56809819Y-45762899D02*
X56809819Y-46000994D01*
X56809819Y-44477185D02*
X56809819Y-45048613D01*
X56809819Y-44762899D02*
X55809819Y-44762899D01*
X55809819Y-44762899D02*
X55952676Y-44858137D01*
X55952676Y-44858137D02*
X56047914Y-44953375D01*
X56047914Y-44953375D02*
X56095533Y-45048613D01*
X32638133Y-48740880D02*
X32590514Y-48788500D01*
X32590514Y-48788500D02*
X32447657Y-48836119D01*
X32447657Y-48836119D02*
X32352419Y-48836119D01*
X32352419Y-48836119D02*
X32209562Y-48788500D01*
X32209562Y-48788500D02*
X32114324Y-48693261D01*
X32114324Y-48693261D02*
X32066705Y-48598023D01*
X32066705Y-48598023D02*
X32019086Y-48407547D01*
X32019086Y-48407547D02*
X32019086Y-48264690D01*
X32019086Y-48264690D02*
X32066705Y-48074214D01*
X32066705Y-48074214D02*
X32114324Y-47978976D01*
X32114324Y-47978976D02*
X32209562Y-47883738D01*
X32209562Y-47883738D02*
X32352419Y-47836119D01*
X32352419Y-47836119D02*
X32447657Y-47836119D01*
X32447657Y-47836119D02*
X32590514Y-47883738D01*
X32590514Y-47883738D02*
X32638133Y-47931357D01*
X33019086Y-47931357D02*
X33066705Y-47883738D01*
X33066705Y-47883738D02*
X33161943Y-47836119D01*
X33161943Y-47836119D02*
X33400038Y-47836119D01*
X33400038Y-47836119D02*
X33495276Y-47883738D01*
X33495276Y-47883738D02*
X33542895Y-47931357D01*
X33542895Y-47931357D02*
X33590514Y-48026595D01*
X33590514Y-48026595D02*
X33590514Y-48121833D01*
X33590514Y-48121833D02*
X33542895Y-48264690D01*
X33542895Y-48264690D02*
X32971467Y-48836119D01*
X32971467Y-48836119D02*
X33590514Y-48836119D01*
X64563180Y-41695866D02*
X64610800Y-41743485D01*
X64610800Y-41743485D02*
X64658419Y-41886342D01*
X64658419Y-41886342D02*
X64658419Y-41981580D01*
X64658419Y-41981580D02*
X64610800Y-42124437D01*
X64610800Y-42124437D02*
X64515561Y-42219675D01*
X64515561Y-42219675D02*
X64420323Y-42267294D01*
X64420323Y-42267294D02*
X64229847Y-42314913D01*
X64229847Y-42314913D02*
X64086990Y-42314913D01*
X64086990Y-42314913D02*
X63896514Y-42267294D01*
X63896514Y-42267294D02*
X63801276Y-42219675D01*
X63801276Y-42219675D02*
X63706038Y-42124437D01*
X63706038Y-42124437D02*
X63658419Y-41981580D01*
X63658419Y-41981580D02*
X63658419Y-41886342D01*
X63658419Y-41886342D02*
X63706038Y-41743485D01*
X63706038Y-41743485D02*
X63753657Y-41695866D01*
X64658419Y-40743485D02*
X64658419Y-41314913D01*
X64658419Y-41029199D02*
X63658419Y-41029199D01*
X63658419Y-41029199D02*
X63801276Y-41124437D01*
X63801276Y-41124437D02*
X63896514Y-41219675D01*
X63896514Y-41219675D02*
X63944133Y-41314913D01*
D12*
%TO.C,SW1*%
X37029800Y-50896000D02*
X37029800Y-48816000D01*
X38299800Y-47136000D02*
X37809800Y-47626000D01*
X38299800Y-47136000D02*
X41199800Y-47136000D01*
X38299800Y-52576000D02*
X37809800Y-52086000D01*
X38299800Y-52576000D02*
X41199800Y-52576000D01*
X41199800Y-47136000D02*
X41689800Y-47626000D01*
X41199800Y-52576000D02*
X41689800Y-52086000D01*
X42469800Y-50896000D02*
X42469800Y-48816000D01*
%TO.C,SW2*%
X45665800Y-59201800D02*
X45665800Y-57121800D01*
X46935800Y-55441800D02*
X46445800Y-55931800D01*
X46935800Y-55441800D02*
X49835800Y-55441800D01*
X46935800Y-60881800D02*
X46445800Y-60391800D01*
X46935800Y-60881800D02*
X49835800Y-60881800D01*
X49835800Y-55441800D02*
X50325800Y-55931800D01*
X49835800Y-60881800D02*
X50325800Y-60391800D01*
X51105800Y-59201800D02*
X51105800Y-57121800D01*
%TO.C,U3*%
X33735400Y-38512100D02*
X37495400Y-38512100D01*
X33735400Y-45332100D02*
X37495400Y-45332100D01*
X37495400Y-38512100D02*
X37495400Y-39772100D01*
X37495400Y-45332100D02*
X37495400Y-44072100D01*
X32455400Y-38612100D02*
X32215400Y-38282100D01*
X32695400Y-38282100D01*
X32455400Y-38612100D01*
G36*
X32455400Y-38612100D02*
G01*
X32215400Y-38282100D01*
X32695400Y-38282100D01*
X32455400Y-38612100D01*
G37*
%TO.C,U2*%
X59109800Y-40241000D02*
X63049800Y-40241000D01*
X59109800Y-42821000D02*
X63049800Y-42821000D01*
X58979800Y-40831000D02*
X58649800Y-41071000D01*
X58649800Y-40591000D01*
X58979800Y-40831000D01*
G36*
X58979800Y-40831000D02*
G01*
X58649800Y-41071000D01*
X58649800Y-40591000D01*
X58979800Y-40831000D01*
G37*
%TO.C,U1*%
X44866000Y-44982400D02*
X44866000Y-44572400D01*
X44866000Y-51552400D02*
X44866000Y-50902400D01*
X45516000Y-44332400D02*
X45166000Y-44332400D01*
X45516000Y-51552400D02*
X44866000Y-51552400D01*
X51436000Y-44332400D02*
X52086000Y-44332400D01*
X51436000Y-51552400D02*
X52086000Y-51552400D01*
X52086000Y-44332400D02*
X52086000Y-44982400D01*
X52086000Y-51552400D02*
X52086000Y-50902400D01*
X44866000Y-44332400D02*
X44626000Y-44002400D01*
X45106000Y-44002400D01*
X44866000Y-44332400D01*
G36*
X44866000Y-44332400D02*
G01*
X44626000Y-44002400D01*
X45106000Y-44002400D01*
X44866000Y-44332400D01*
G37*
%TO.C,R9*%
X54316100Y-49678858D02*
X54316100Y-49204342D01*
X55361100Y-49678858D02*
X55361100Y-49204342D01*
%TO.C,R8*%
X44624058Y-40516100D02*
X44149542Y-40516100D01*
X44624058Y-39471100D02*
X44149542Y-39471100D01*
%TO.C,R7*%
X48625058Y-40516100D02*
X48150542Y-40516100D01*
X48625058Y-39471100D02*
X48150542Y-39471100D01*
%TO.C,R6*%
X52397458Y-40541500D02*
X51922942Y-40541500D01*
X52397458Y-39496500D02*
X51922942Y-39496500D01*
%TO.C,R5*%
X50930542Y-53833500D02*
X51405058Y-53833500D01*
X50930542Y-54878500D02*
X51405058Y-54878500D01*
%TO.C,R4*%
X42759100Y-45512258D02*
X42759100Y-45037742D01*
X43804100Y-45512258D02*
X43804100Y-45037742D01*
%TO.C,R3*%
X54316100Y-45550858D02*
X54316100Y-45076342D01*
X55361100Y-45550858D02*
X55361100Y-45076342D01*
%TO.C,R2*%
X60798942Y-44651900D02*
X61273458Y-44651900D01*
X60798942Y-45696900D02*
X61273458Y-45696900D01*
%TO.C,R1*%
X57164500Y-41291742D02*
X57164500Y-41766258D01*
X56119500Y-41291742D02*
X56119500Y-41766258D01*
%TO.C,J1*%
X53004200Y-34755800D02*
X53004200Y-36455800D01*
X43664200Y-34755800D02*
X43664200Y-36455800D01*
%TO.C,D2*%
X57050000Y-50989500D02*
X58520000Y-50989500D01*
X58520000Y-50989500D02*
X58520000Y-48704500D01*
X57050000Y-48704500D02*
X57050000Y-50989500D01*
%TO.C,D1*%
X57050000Y-46747900D02*
X58520000Y-46747900D01*
X58520000Y-46747900D02*
X58520000Y-44462900D01*
X57050000Y-44462900D02*
X57050000Y-46747900D01*
%TO.C,C2*%
X32945380Y-47461300D02*
X32664220Y-47461300D01*
X32945380Y-46441300D02*
X32664220Y-46441300D01*
%TO.C,C1*%
X65123600Y-41669780D02*
X65123600Y-41388620D01*
X66143600Y-41669780D02*
X66143600Y-41388620D01*
%TD*%
M02*
