%TF.GenerationSoftware,KiCad,Pcbnew,8.0.6*%
%TF.CreationDate,2025-05-21T19:35:11-04:00*%
%TF.ProjectId,ir_controller,69725f63-6f6e-4747-926f-6c6c65722e6b,rev?*%
%TF.SameCoordinates,Original*%
%TF.FileFunction,Drillmap*%
%TF.FilePolarity,Positive*%
%FSLAX45Y45*%
G04 Gerber Fmt 4.5, Leading zero omitted, Abs format (unit mm)*
G04 Created by KiCad (PCBNEW 8.0.6) date 2025-05-21 19:35:11*
%MOMM*%
%LPD*%
G01*
G04 APERTURE LIST*
%ADD10C,0.050000*%
%ADD11C,0.200000*%
%ADD12C,0.100000*%
G04 APERTURE END LIST*
D10*
X5641340Y-2890520D02*
X6390640Y-3175000D01*
X6733540Y-3799840D01*
X6764020Y-5214620D01*
X5356860Y-5201920D01*
X5339080Y-6202680D01*
X4312920Y-6197600D01*
X4312920Y-5392420D01*
X2984500Y-5387340D01*
X3025140Y-3649980D01*
X4206240Y-3639820D01*
X4198620Y-2877820D01*
X5641340Y-2890520D01*
D11*
D12*
X3228540Y-4407210D02*
X3258540Y-4437210D01*
X3258540Y-4407210D02*
X3228540Y-4437210D01*
X3858540Y-4177210D02*
X3888540Y-4207210D01*
X3888540Y-4177210D02*
X3858540Y-4207210D01*
X4269980Y-4785600D02*
X4299980Y-4815600D01*
X4299980Y-4785600D02*
X4269980Y-4815600D01*
X4373160Y-4201400D02*
X4403160Y-4231400D01*
X4403160Y-4201400D02*
X4373160Y-4231400D01*
X4620500Y-3975340D02*
X4650500Y-4005340D01*
X4650500Y-3975340D02*
X4620500Y-4005340D01*
X4648440Y-4779240D02*
X4678440Y-4809240D01*
X4678440Y-4779240D02*
X4648440Y-4809240D01*
X4810685Y-4518229D02*
X4840685Y-4548229D01*
X4840685Y-4518229D02*
X4810685Y-4548229D01*
X4832600Y-4779240D02*
X4862600Y-4809240D01*
X4862600Y-4779240D02*
X4832600Y-4809240D01*
X4945620Y-4539220D02*
X4975620Y-4569220D01*
X4975620Y-4539220D02*
X4945620Y-4569220D01*
X4953240Y-5263120D02*
X4983240Y-5293120D01*
X4983240Y-5263120D02*
X4953240Y-5293120D01*
X5082677Y-4590974D02*
X5112677Y-4620974D01*
X5112677Y-4590974D02*
X5082677Y-4620974D01*
X5158980Y-4460480D02*
X5188980Y-4490480D01*
X5188980Y-4460480D02*
X5158980Y-4490480D01*
X5238569Y-4280989D02*
X5268569Y-4310989D01*
X5268569Y-4280989D02*
X5238569Y-4310989D01*
X5288520Y-5065000D02*
X5318520Y-5095000D01*
X5318520Y-5065000D02*
X5288520Y-5095000D01*
X5313920Y-4939240D02*
X5343920Y-4969240D01*
X5343920Y-4939240D02*
X5313920Y-4969240D01*
X5336780Y-4846560D02*
X5366780Y-4876560D01*
X5366780Y-4846560D02*
X5336780Y-4876560D01*
X5812061Y-4747801D02*
X5842061Y-4777801D01*
X5842061Y-4747801D02*
X5812061Y-4777801D01*
X6044480Y-4068100D02*
X6074480Y-4098100D01*
X6074480Y-4068100D02*
X6044480Y-4098100D01*
X6178480Y-4328400D02*
X6208480Y-4358400D01*
X6208480Y-4328400D02*
X6178480Y-4358400D01*
X6238480Y-4068100D02*
X6268480Y-4098100D01*
X6268480Y-4068100D02*
X6238480Y-4098100D01*
X4431420Y-3370580D02*
G75*
G02*
X4371420Y-3370580I-30000J0D01*
G01*
X4371420Y-3370580D02*
G75*
G02*
X4431420Y-3370580I30000J0D01*
G01*
X4431420Y-3400580D02*
X4431420Y-3340580D01*
X4371420Y-3340580D02*
G75*
G02*
X4431420Y-3340580I30000J0D01*
G01*
X4371420Y-3340580D02*
X4371420Y-3400580D01*
X4371420Y-3400580D02*
G75*
G03*
X4431420Y-3400580I30000J0D01*
G01*
X4431420Y-3750580D02*
G75*
G02*
X4371420Y-3750580I-30000J0D01*
G01*
X4371420Y-3750580D02*
G75*
G02*
X4431420Y-3750580I30000J0D01*
G01*
X4431420Y-3780580D02*
X4431420Y-3720580D01*
X4371420Y-3720580D02*
G75*
G02*
X4431420Y-3720580I30000J0D01*
G01*
X4371420Y-3720580D02*
X4371420Y-3780580D01*
X4371420Y-3780580D02*
G75*
G03*
X4431420Y-3780580I30000J0D01*
G01*
X5295420Y-3370580D02*
G75*
G02*
X5235420Y-3370580I-30000J0D01*
G01*
X5235420Y-3370580D02*
G75*
G02*
X5295420Y-3370580I30000J0D01*
G01*
X5295420Y-3400580D02*
X5295420Y-3340580D01*
X5235420Y-3340580D02*
G75*
G02*
X5295420Y-3340580I30000J0D01*
G01*
X5235420Y-3340580D02*
X5235420Y-3400580D01*
X5235420Y-3400580D02*
G75*
G03*
X5295420Y-3400580I30000J0D01*
G01*
X5295420Y-3750580D02*
G75*
G02*
X5235420Y-3750580I-30000J0D01*
G01*
X5235420Y-3750580D02*
G75*
G02*
X5295420Y-3750580I30000J0D01*
G01*
X5295420Y-3780580D02*
X5295420Y-3720580D01*
X5235420Y-3720580D02*
G75*
G02*
X5295420Y-3720580I30000J0D01*
G01*
X5235420Y-3720580D02*
X5235420Y-3780580D01*
X5235420Y-3780580D02*
G75*
G03*
X5295420Y-3780580I30000J0D01*
G01*
D11*
X3242777Y-6516664D02*
X3242777Y-6316664D01*
X3242777Y-6316664D02*
X3290396Y-6316664D01*
X3290396Y-6316664D02*
X3318967Y-6326188D01*
X3318967Y-6326188D02*
X3338015Y-6345235D01*
X3338015Y-6345235D02*
X3347539Y-6364283D01*
X3347539Y-6364283D02*
X3357062Y-6402378D01*
X3357062Y-6402378D02*
X3357062Y-6430949D01*
X3357062Y-6430949D02*
X3347539Y-6469045D01*
X3347539Y-6469045D02*
X3338015Y-6488092D01*
X3338015Y-6488092D02*
X3318967Y-6507140D01*
X3318967Y-6507140D02*
X3290396Y-6516664D01*
X3290396Y-6516664D02*
X3242777Y-6516664D01*
X3442777Y-6516664D02*
X3442777Y-6383330D01*
X3442777Y-6421426D02*
X3452301Y-6402378D01*
X3452301Y-6402378D02*
X3461824Y-6392854D01*
X3461824Y-6392854D02*
X3480872Y-6383330D01*
X3480872Y-6383330D02*
X3499920Y-6383330D01*
X3566586Y-6516664D02*
X3566586Y-6383330D01*
X3566586Y-6316664D02*
X3557062Y-6326188D01*
X3557062Y-6326188D02*
X3566586Y-6335711D01*
X3566586Y-6335711D02*
X3576110Y-6326188D01*
X3576110Y-6326188D02*
X3566586Y-6316664D01*
X3566586Y-6316664D02*
X3566586Y-6335711D01*
X3690396Y-6516664D02*
X3671348Y-6507140D01*
X3671348Y-6507140D02*
X3661824Y-6488092D01*
X3661824Y-6488092D02*
X3661824Y-6316664D01*
X3795158Y-6516664D02*
X3776110Y-6507140D01*
X3776110Y-6507140D02*
X3766586Y-6488092D01*
X3766586Y-6488092D02*
X3766586Y-6316664D01*
X4023729Y-6516664D02*
X4023729Y-6316664D01*
X4023729Y-6316664D02*
X4090396Y-6459521D01*
X4090396Y-6459521D02*
X4157062Y-6316664D01*
X4157062Y-6316664D02*
X4157062Y-6516664D01*
X4338015Y-6516664D02*
X4338015Y-6411902D01*
X4338015Y-6411902D02*
X4328491Y-6392854D01*
X4328491Y-6392854D02*
X4309444Y-6383330D01*
X4309444Y-6383330D02*
X4271348Y-6383330D01*
X4271348Y-6383330D02*
X4252301Y-6392854D01*
X4338015Y-6507140D02*
X4318967Y-6516664D01*
X4318967Y-6516664D02*
X4271348Y-6516664D01*
X4271348Y-6516664D02*
X4252301Y-6507140D01*
X4252301Y-6507140D02*
X4242777Y-6488092D01*
X4242777Y-6488092D02*
X4242777Y-6469045D01*
X4242777Y-6469045D02*
X4252301Y-6449997D01*
X4252301Y-6449997D02*
X4271348Y-6440473D01*
X4271348Y-6440473D02*
X4318967Y-6440473D01*
X4318967Y-6440473D02*
X4338015Y-6430949D01*
X4433253Y-6383330D02*
X4433253Y-6583330D01*
X4433253Y-6392854D02*
X4452301Y-6383330D01*
X4452301Y-6383330D02*
X4490396Y-6383330D01*
X4490396Y-6383330D02*
X4509444Y-6392854D01*
X4509444Y-6392854D02*
X4518967Y-6402378D01*
X4518967Y-6402378D02*
X4528491Y-6421426D01*
X4528491Y-6421426D02*
X4528491Y-6478568D01*
X4528491Y-6478568D02*
X4518967Y-6497616D01*
X4518967Y-6497616D02*
X4509444Y-6507140D01*
X4509444Y-6507140D02*
X4490396Y-6516664D01*
X4490396Y-6516664D02*
X4452301Y-6516664D01*
X4452301Y-6516664D02*
X4433253Y-6507140D01*
X4614205Y-6497616D02*
X4623729Y-6507140D01*
X4623729Y-6507140D02*
X4614205Y-6516664D01*
X4614205Y-6516664D02*
X4604682Y-6507140D01*
X4604682Y-6507140D02*
X4614205Y-6497616D01*
X4614205Y-6497616D02*
X4614205Y-6516664D01*
X4614205Y-6392854D02*
X4623729Y-6402378D01*
X4623729Y-6402378D02*
X4614205Y-6411902D01*
X4614205Y-6411902D02*
X4604682Y-6402378D01*
X4604682Y-6402378D02*
X4614205Y-6392854D01*
X4614205Y-6392854D02*
X4614205Y-6411902D01*
D12*
X2952000Y-6830180D02*
X2982000Y-6860180D01*
X2982000Y-6830180D02*
X2952000Y-6860180D01*
D11*
X3280872Y-6736664D02*
X3299920Y-6736664D01*
X3299920Y-6736664D02*
X3318967Y-6746188D01*
X3318967Y-6746188D02*
X3328491Y-6755711D01*
X3328491Y-6755711D02*
X3338015Y-6774759D01*
X3338015Y-6774759D02*
X3347539Y-6812854D01*
X3347539Y-6812854D02*
X3347539Y-6860473D01*
X3347539Y-6860473D02*
X3338015Y-6898568D01*
X3338015Y-6898568D02*
X3328491Y-6917616D01*
X3328491Y-6917616D02*
X3318967Y-6927140D01*
X3318967Y-6927140D02*
X3299920Y-6936664D01*
X3299920Y-6936664D02*
X3280872Y-6936664D01*
X3280872Y-6936664D02*
X3261824Y-6927140D01*
X3261824Y-6927140D02*
X3252301Y-6917616D01*
X3252301Y-6917616D02*
X3242777Y-6898568D01*
X3242777Y-6898568D02*
X3233253Y-6860473D01*
X3233253Y-6860473D02*
X3233253Y-6812854D01*
X3233253Y-6812854D02*
X3242777Y-6774759D01*
X3242777Y-6774759D02*
X3252301Y-6755711D01*
X3252301Y-6755711D02*
X3261824Y-6746188D01*
X3261824Y-6746188D02*
X3280872Y-6736664D01*
X3433253Y-6917616D02*
X3442777Y-6927140D01*
X3442777Y-6927140D02*
X3433253Y-6936664D01*
X3433253Y-6936664D02*
X3423729Y-6927140D01*
X3423729Y-6927140D02*
X3433253Y-6917616D01*
X3433253Y-6917616D02*
X3433253Y-6936664D01*
X3509443Y-6736664D02*
X3633253Y-6736664D01*
X3633253Y-6736664D02*
X3566586Y-6812854D01*
X3566586Y-6812854D02*
X3595158Y-6812854D01*
X3595158Y-6812854D02*
X3614205Y-6822378D01*
X3614205Y-6822378D02*
X3623729Y-6831902D01*
X3623729Y-6831902D02*
X3633253Y-6850949D01*
X3633253Y-6850949D02*
X3633253Y-6898568D01*
X3633253Y-6898568D02*
X3623729Y-6917616D01*
X3623729Y-6917616D02*
X3614205Y-6927140D01*
X3614205Y-6927140D02*
X3595158Y-6936664D01*
X3595158Y-6936664D02*
X3538015Y-6936664D01*
X3538015Y-6936664D02*
X3518967Y-6927140D01*
X3518967Y-6927140D02*
X3509443Y-6917616D01*
X3757062Y-6736664D02*
X3776110Y-6736664D01*
X3776110Y-6736664D02*
X3795158Y-6746188D01*
X3795158Y-6746188D02*
X3804682Y-6755711D01*
X3804682Y-6755711D02*
X3814205Y-6774759D01*
X3814205Y-6774759D02*
X3823729Y-6812854D01*
X3823729Y-6812854D02*
X3823729Y-6860473D01*
X3823729Y-6860473D02*
X3814205Y-6898568D01*
X3814205Y-6898568D02*
X3804682Y-6917616D01*
X3804682Y-6917616D02*
X3795158Y-6927140D01*
X3795158Y-6927140D02*
X3776110Y-6936664D01*
X3776110Y-6936664D02*
X3757062Y-6936664D01*
X3757062Y-6936664D02*
X3738015Y-6927140D01*
X3738015Y-6927140D02*
X3728491Y-6917616D01*
X3728491Y-6917616D02*
X3718967Y-6898568D01*
X3718967Y-6898568D02*
X3709443Y-6860473D01*
X3709443Y-6860473D02*
X3709443Y-6812854D01*
X3709443Y-6812854D02*
X3718967Y-6774759D01*
X3718967Y-6774759D02*
X3728491Y-6755711D01*
X3728491Y-6755711D02*
X3738015Y-6746188D01*
X3738015Y-6746188D02*
X3757062Y-6736664D01*
X3947539Y-6736664D02*
X3966586Y-6736664D01*
X3966586Y-6736664D02*
X3985634Y-6746188D01*
X3985634Y-6746188D02*
X3995158Y-6755711D01*
X3995158Y-6755711D02*
X4004682Y-6774759D01*
X4004682Y-6774759D02*
X4014205Y-6812854D01*
X4014205Y-6812854D02*
X4014205Y-6860473D01*
X4014205Y-6860473D02*
X4004682Y-6898568D01*
X4004682Y-6898568D02*
X3995158Y-6917616D01*
X3995158Y-6917616D02*
X3985634Y-6927140D01*
X3985634Y-6927140D02*
X3966586Y-6936664D01*
X3966586Y-6936664D02*
X3947539Y-6936664D01*
X3947539Y-6936664D02*
X3928491Y-6927140D01*
X3928491Y-6927140D02*
X3918967Y-6917616D01*
X3918967Y-6917616D02*
X3909443Y-6898568D01*
X3909443Y-6898568D02*
X3899920Y-6860473D01*
X3899920Y-6860473D02*
X3899920Y-6812854D01*
X3899920Y-6812854D02*
X3909443Y-6774759D01*
X3909443Y-6774759D02*
X3918967Y-6755711D01*
X3918967Y-6755711D02*
X3928491Y-6746188D01*
X3928491Y-6746188D02*
X3947539Y-6736664D01*
X4099920Y-6936664D02*
X4099920Y-6803330D01*
X4099920Y-6822378D02*
X4109443Y-6812854D01*
X4109443Y-6812854D02*
X4128491Y-6803330D01*
X4128491Y-6803330D02*
X4157063Y-6803330D01*
X4157063Y-6803330D02*
X4176110Y-6812854D01*
X4176110Y-6812854D02*
X4185634Y-6831902D01*
X4185634Y-6831902D02*
X4185634Y-6936664D01*
X4185634Y-6831902D02*
X4195158Y-6812854D01*
X4195158Y-6812854D02*
X4214205Y-6803330D01*
X4214205Y-6803330D02*
X4242777Y-6803330D01*
X4242777Y-6803330D02*
X4261825Y-6812854D01*
X4261825Y-6812854D02*
X4271348Y-6831902D01*
X4271348Y-6831902D02*
X4271348Y-6936664D01*
X4366586Y-6936664D02*
X4366586Y-6803330D01*
X4366586Y-6822378D02*
X4376110Y-6812854D01*
X4376110Y-6812854D02*
X4395158Y-6803330D01*
X4395158Y-6803330D02*
X4423729Y-6803330D01*
X4423729Y-6803330D02*
X4442777Y-6812854D01*
X4442777Y-6812854D02*
X4452301Y-6831902D01*
X4452301Y-6831902D02*
X4452301Y-6936664D01*
X4452301Y-6831902D02*
X4461825Y-6812854D01*
X4461825Y-6812854D02*
X4480872Y-6803330D01*
X4480872Y-6803330D02*
X4509444Y-6803330D01*
X4509444Y-6803330D02*
X4528491Y-6812854D01*
X4528491Y-6812854D02*
X4538015Y-6831902D01*
X4538015Y-6831902D02*
X4538015Y-6936664D01*
X4928491Y-6727140D02*
X4757063Y-6984283D01*
X5185634Y-6736664D02*
X5204682Y-6736664D01*
X5204682Y-6736664D02*
X5223729Y-6746188D01*
X5223729Y-6746188D02*
X5233253Y-6755711D01*
X5233253Y-6755711D02*
X5242777Y-6774759D01*
X5242777Y-6774759D02*
X5252301Y-6812854D01*
X5252301Y-6812854D02*
X5252301Y-6860473D01*
X5252301Y-6860473D02*
X5242777Y-6898568D01*
X5242777Y-6898568D02*
X5233253Y-6917616D01*
X5233253Y-6917616D02*
X5223729Y-6927140D01*
X5223729Y-6927140D02*
X5204682Y-6936664D01*
X5204682Y-6936664D02*
X5185634Y-6936664D01*
X5185634Y-6936664D02*
X5166587Y-6927140D01*
X5166587Y-6927140D02*
X5157063Y-6917616D01*
X5157063Y-6917616D02*
X5147539Y-6898568D01*
X5147539Y-6898568D02*
X5138015Y-6860473D01*
X5138015Y-6860473D02*
X5138015Y-6812854D01*
X5138015Y-6812854D02*
X5147539Y-6774759D01*
X5147539Y-6774759D02*
X5157063Y-6755711D01*
X5157063Y-6755711D02*
X5166587Y-6746188D01*
X5166587Y-6746188D02*
X5185634Y-6736664D01*
X5338015Y-6917616D02*
X5347539Y-6927140D01*
X5347539Y-6927140D02*
X5338015Y-6936664D01*
X5338015Y-6936664D02*
X5328491Y-6927140D01*
X5328491Y-6927140D02*
X5338015Y-6917616D01*
X5338015Y-6917616D02*
X5338015Y-6936664D01*
X5471348Y-6736664D02*
X5490396Y-6736664D01*
X5490396Y-6736664D02*
X5509444Y-6746188D01*
X5509444Y-6746188D02*
X5518968Y-6755711D01*
X5518968Y-6755711D02*
X5528491Y-6774759D01*
X5528491Y-6774759D02*
X5538015Y-6812854D01*
X5538015Y-6812854D02*
X5538015Y-6860473D01*
X5538015Y-6860473D02*
X5528491Y-6898568D01*
X5528491Y-6898568D02*
X5518968Y-6917616D01*
X5518968Y-6917616D02*
X5509444Y-6927140D01*
X5509444Y-6927140D02*
X5490396Y-6936664D01*
X5490396Y-6936664D02*
X5471348Y-6936664D01*
X5471348Y-6936664D02*
X5452301Y-6927140D01*
X5452301Y-6927140D02*
X5442777Y-6917616D01*
X5442777Y-6917616D02*
X5433253Y-6898568D01*
X5433253Y-6898568D02*
X5423729Y-6860473D01*
X5423729Y-6860473D02*
X5423729Y-6812854D01*
X5423729Y-6812854D02*
X5433253Y-6774759D01*
X5433253Y-6774759D02*
X5442777Y-6755711D01*
X5442777Y-6755711D02*
X5452301Y-6746188D01*
X5452301Y-6746188D02*
X5471348Y-6736664D01*
X5728491Y-6936664D02*
X5614206Y-6936664D01*
X5671348Y-6936664D02*
X5671348Y-6736664D01*
X5671348Y-6736664D02*
X5652301Y-6765235D01*
X5652301Y-6765235D02*
X5633253Y-6784283D01*
X5633253Y-6784283D02*
X5614206Y-6793807D01*
X5918967Y-6936664D02*
X5804682Y-6936664D01*
X5861825Y-6936664D02*
X5861825Y-6736664D01*
X5861825Y-6736664D02*
X5842777Y-6765235D01*
X5842777Y-6765235D02*
X5823729Y-6784283D01*
X5823729Y-6784283D02*
X5804682Y-6793807D01*
X6033253Y-6822378D02*
X6014206Y-6812854D01*
X6014206Y-6812854D02*
X6004682Y-6803330D01*
X6004682Y-6803330D02*
X5995158Y-6784283D01*
X5995158Y-6784283D02*
X5995158Y-6774759D01*
X5995158Y-6774759D02*
X6004682Y-6755711D01*
X6004682Y-6755711D02*
X6014206Y-6746188D01*
X6014206Y-6746188D02*
X6033253Y-6736664D01*
X6033253Y-6736664D02*
X6071348Y-6736664D01*
X6071348Y-6736664D02*
X6090396Y-6746188D01*
X6090396Y-6746188D02*
X6099920Y-6755711D01*
X6099920Y-6755711D02*
X6109444Y-6774759D01*
X6109444Y-6774759D02*
X6109444Y-6784283D01*
X6109444Y-6784283D02*
X6099920Y-6803330D01*
X6099920Y-6803330D02*
X6090396Y-6812854D01*
X6090396Y-6812854D02*
X6071348Y-6822378D01*
X6071348Y-6822378D02*
X6033253Y-6822378D01*
X6033253Y-6822378D02*
X6014206Y-6831902D01*
X6014206Y-6831902D02*
X6004682Y-6841426D01*
X6004682Y-6841426D02*
X5995158Y-6860473D01*
X5995158Y-6860473D02*
X5995158Y-6898568D01*
X5995158Y-6898568D02*
X6004682Y-6917616D01*
X6004682Y-6917616D02*
X6014206Y-6927140D01*
X6014206Y-6927140D02*
X6033253Y-6936664D01*
X6033253Y-6936664D02*
X6071348Y-6936664D01*
X6071348Y-6936664D02*
X6090396Y-6927140D01*
X6090396Y-6927140D02*
X6099920Y-6917616D01*
X6099920Y-6917616D02*
X6109444Y-6898568D01*
X6109444Y-6898568D02*
X6109444Y-6860473D01*
X6109444Y-6860473D02*
X6099920Y-6841426D01*
X6099920Y-6841426D02*
X6090396Y-6831902D01*
X6090396Y-6831902D02*
X6071348Y-6822378D01*
X6185634Y-6736664D02*
X6185634Y-6774759D01*
X6261825Y-6736664D02*
X6261825Y-6774759D01*
X6557063Y-7012854D02*
X6547539Y-7003330D01*
X6547539Y-7003330D02*
X6528491Y-6974759D01*
X6528491Y-6974759D02*
X6518968Y-6955711D01*
X6518968Y-6955711D02*
X6509444Y-6927140D01*
X6509444Y-6927140D02*
X6499920Y-6879521D01*
X6499920Y-6879521D02*
X6499920Y-6841426D01*
X6499920Y-6841426D02*
X6509444Y-6793807D01*
X6509444Y-6793807D02*
X6518968Y-6765235D01*
X6518968Y-6765235D02*
X6528491Y-6746188D01*
X6528491Y-6746188D02*
X6547539Y-6717616D01*
X6547539Y-6717616D02*
X6557063Y-6708092D01*
X6623729Y-6755711D02*
X6633253Y-6746188D01*
X6633253Y-6746188D02*
X6652301Y-6736664D01*
X6652301Y-6736664D02*
X6699920Y-6736664D01*
X6699920Y-6736664D02*
X6718968Y-6746188D01*
X6718968Y-6746188D02*
X6728491Y-6755711D01*
X6728491Y-6755711D02*
X6738015Y-6774759D01*
X6738015Y-6774759D02*
X6738015Y-6793807D01*
X6738015Y-6793807D02*
X6728491Y-6822378D01*
X6728491Y-6822378D02*
X6614206Y-6936664D01*
X6614206Y-6936664D02*
X6738015Y-6936664D01*
X6861825Y-6736664D02*
X6880872Y-6736664D01*
X6880872Y-6736664D02*
X6899920Y-6746188D01*
X6899920Y-6746188D02*
X6909444Y-6755711D01*
X6909444Y-6755711D02*
X6918968Y-6774759D01*
X6918968Y-6774759D02*
X6928491Y-6812854D01*
X6928491Y-6812854D02*
X6928491Y-6860473D01*
X6928491Y-6860473D02*
X6918968Y-6898568D01*
X6918968Y-6898568D02*
X6909444Y-6917616D01*
X6909444Y-6917616D02*
X6899920Y-6927140D01*
X6899920Y-6927140D02*
X6880872Y-6936664D01*
X6880872Y-6936664D02*
X6861825Y-6936664D01*
X6861825Y-6936664D02*
X6842777Y-6927140D01*
X6842777Y-6927140D02*
X6833253Y-6917616D01*
X6833253Y-6917616D02*
X6823729Y-6898568D01*
X6823729Y-6898568D02*
X6814206Y-6860473D01*
X6814206Y-6860473D02*
X6814206Y-6812854D01*
X6814206Y-6812854D02*
X6823729Y-6774759D01*
X6823729Y-6774759D02*
X6833253Y-6755711D01*
X6833253Y-6755711D02*
X6842777Y-6746188D01*
X6842777Y-6746188D02*
X6861825Y-6736664D01*
X7166587Y-6936664D02*
X7166587Y-6736664D01*
X7252301Y-6936664D02*
X7252301Y-6831902D01*
X7252301Y-6831902D02*
X7242777Y-6812854D01*
X7242777Y-6812854D02*
X7223730Y-6803330D01*
X7223730Y-6803330D02*
X7195158Y-6803330D01*
X7195158Y-6803330D02*
X7176110Y-6812854D01*
X7176110Y-6812854D02*
X7166587Y-6822378D01*
X7376110Y-6936664D02*
X7357063Y-6927140D01*
X7357063Y-6927140D02*
X7347539Y-6917616D01*
X7347539Y-6917616D02*
X7338015Y-6898568D01*
X7338015Y-6898568D02*
X7338015Y-6841426D01*
X7338015Y-6841426D02*
X7347539Y-6822378D01*
X7347539Y-6822378D02*
X7357063Y-6812854D01*
X7357063Y-6812854D02*
X7376110Y-6803330D01*
X7376110Y-6803330D02*
X7404682Y-6803330D01*
X7404682Y-6803330D02*
X7423730Y-6812854D01*
X7423730Y-6812854D02*
X7433253Y-6822378D01*
X7433253Y-6822378D02*
X7442777Y-6841426D01*
X7442777Y-6841426D02*
X7442777Y-6898568D01*
X7442777Y-6898568D02*
X7433253Y-6917616D01*
X7433253Y-6917616D02*
X7423730Y-6927140D01*
X7423730Y-6927140D02*
X7404682Y-6936664D01*
X7404682Y-6936664D02*
X7376110Y-6936664D01*
X7557063Y-6936664D02*
X7538015Y-6927140D01*
X7538015Y-6927140D02*
X7528491Y-6908092D01*
X7528491Y-6908092D02*
X7528491Y-6736664D01*
X7709444Y-6927140D02*
X7690396Y-6936664D01*
X7690396Y-6936664D02*
X7652301Y-6936664D01*
X7652301Y-6936664D02*
X7633253Y-6927140D01*
X7633253Y-6927140D02*
X7623730Y-6908092D01*
X7623730Y-6908092D02*
X7623730Y-6831902D01*
X7623730Y-6831902D02*
X7633253Y-6812854D01*
X7633253Y-6812854D02*
X7652301Y-6803330D01*
X7652301Y-6803330D02*
X7690396Y-6803330D01*
X7690396Y-6803330D02*
X7709444Y-6812854D01*
X7709444Y-6812854D02*
X7718968Y-6831902D01*
X7718968Y-6831902D02*
X7718968Y-6850949D01*
X7718968Y-6850949D02*
X7623730Y-6869997D01*
X7795158Y-6927140D02*
X7814206Y-6936664D01*
X7814206Y-6936664D02*
X7852301Y-6936664D01*
X7852301Y-6936664D02*
X7871349Y-6927140D01*
X7871349Y-6927140D02*
X7880872Y-6908092D01*
X7880872Y-6908092D02*
X7880872Y-6898568D01*
X7880872Y-6898568D02*
X7871349Y-6879521D01*
X7871349Y-6879521D02*
X7852301Y-6869997D01*
X7852301Y-6869997D02*
X7823730Y-6869997D01*
X7823730Y-6869997D02*
X7804682Y-6860473D01*
X7804682Y-6860473D02*
X7795158Y-6841426D01*
X7795158Y-6841426D02*
X7795158Y-6831902D01*
X7795158Y-6831902D02*
X7804682Y-6812854D01*
X7804682Y-6812854D02*
X7823730Y-6803330D01*
X7823730Y-6803330D02*
X7852301Y-6803330D01*
X7852301Y-6803330D02*
X7871349Y-6812854D01*
X7947539Y-7012854D02*
X7957063Y-7003330D01*
X7957063Y-7003330D02*
X7976111Y-6974759D01*
X7976111Y-6974759D02*
X7985634Y-6955711D01*
X7985634Y-6955711D02*
X7995158Y-6927140D01*
X7995158Y-6927140D02*
X8004682Y-6879521D01*
X8004682Y-6879521D02*
X8004682Y-6841426D01*
X8004682Y-6841426D02*
X7995158Y-6793807D01*
X7995158Y-6793807D02*
X7985634Y-6765235D01*
X7985634Y-6765235D02*
X7976111Y-6746188D01*
X7976111Y-6746188D02*
X7957063Y-6717616D01*
X7957063Y-6717616D02*
X7947539Y-6708092D01*
D12*
X2982000Y-7109180D02*
G75*
G02*
X2922000Y-7109180I-30000J0D01*
G01*
X2922000Y-7109180D02*
G75*
G02*
X2982000Y-7109180I30000J0D01*
G01*
D11*
X3280872Y-7000664D02*
X3299920Y-7000664D01*
X3299920Y-7000664D02*
X3318967Y-7010188D01*
X3318967Y-7010188D02*
X3328491Y-7019711D01*
X3328491Y-7019711D02*
X3338015Y-7038759D01*
X3338015Y-7038759D02*
X3347539Y-7076854D01*
X3347539Y-7076854D02*
X3347539Y-7124473D01*
X3347539Y-7124473D02*
X3338015Y-7162568D01*
X3338015Y-7162568D02*
X3328491Y-7181616D01*
X3328491Y-7181616D02*
X3318967Y-7191140D01*
X3318967Y-7191140D02*
X3299920Y-7200664D01*
X3299920Y-7200664D02*
X3280872Y-7200664D01*
X3280872Y-7200664D02*
X3261824Y-7191140D01*
X3261824Y-7191140D02*
X3252301Y-7181616D01*
X3252301Y-7181616D02*
X3242777Y-7162568D01*
X3242777Y-7162568D02*
X3233253Y-7124473D01*
X3233253Y-7124473D02*
X3233253Y-7076854D01*
X3233253Y-7076854D02*
X3242777Y-7038759D01*
X3242777Y-7038759D02*
X3252301Y-7019711D01*
X3252301Y-7019711D02*
X3261824Y-7010188D01*
X3261824Y-7010188D02*
X3280872Y-7000664D01*
X3433253Y-7181616D02*
X3442777Y-7191140D01*
X3442777Y-7191140D02*
X3433253Y-7200664D01*
X3433253Y-7200664D02*
X3423729Y-7191140D01*
X3423729Y-7191140D02*
X3433253Y-7181616D01*
X3433253Y-7181616D02*
X3433253Y-7200664D01*
X3614205Y-7000664D02*
X3576110Y-7000664D01*
X3576110Y-7000664D02*
X3557062Y-7010188D01*
X3557062Y-7010188D02*
X3547539Y-7019711D01*
X3547539Y-7019711D02*
X3528491Y-7048283D01*
X3528491Y-7048283D02*
X3518967Y-7086378D01*
X3518967Y-7086378D02*
X3518967Y-7162568D01*
X3518967Y-7162568D02*
X3528491Y-7181616D01*
X3528491Y-7181616D02*
X3538015Y-7191140D01*
X3538015Y-7191140D02*
X3557062Y-7200664D01*
X3557062Y-7200664D02*
X3595158Y-7200664D01*
X3595158Y-7200664D02*
X3614205Y-7191140D01*
X3614205Y-7191140D02*
X3623729Y-7181616D01*
X3623729Y-7181616D02*
X3633253Y-7162568D01*
X3633253Y-7162568D02*
X3633253Y-7114949D01*
X3633253Y-7114949D02*
X3623729Y-7095902D01*
X3623729Y-7095902D02*
X3614205Y-7086378D01*
X3614205Y-7086378D02*
X3595158Y-7076854D01*
X3595158Y-7076854D02*
X3557062Y-7076854D01*
X3557062Y-7076854D02*
X3538015Y-7086378D01*
X3538015Y-7086378D02*
X3528491Y-7095902D01*
X3528491Y-7095902D02*
X3518967Y-7114949D01*
X3757062Y-7000664D02*
X3776110Y-7000664D01*
X3776110Y-7000664D02*
X3795158Y-7010188D01*
X3795158Y-7010188D02*
X3804682Y-7019711D01*
X3804682Y-7019711D02*
X3814205Y-7038759D01*
X3814205Y-7038759D02*
X3823729Y-7076854D01*
X3823729Y-7076854D02*
X3823729Y-7124473D01*
X3823729Y-7124473D02*
X3814205Y-7162568D01*
X3814205Y-7162568D02*
X3804682Y-7181616D01*
X3804682Y-7181616D02*
X3795158Y-7191140D01*
X3795158Y-7191140D02*
X3776110Y-7200664D01*
X3776110Y-7200664D02*
X3757062Y-7200664D01*
X3757062Y-7200664D02*
X3738015Y-7191140D01*
X3738015Y-7191140D02*
X3728491Y-7181616D01*
X3728491Y-7181616D02*
X3718967Y-7162568D01*
X3718967Y-7162568D02*
X3709443Y-7124473D01*
X3709443Y-7124473D02*
X3709443Y-7076854D01*
X3709443Y-7076854D02*
X3718967Y-7038759D01*
X3718967Y-7038759D02*
X3728491Y-7019711D01*
X3728491Y-7019711D02*
X3738015Y-7010188D01*
X3738015Y-7010188D02*
X3757062Y-7000664D01*
X3947539Y-7000664D02*
X3966586Y-7000664D01*
X3966586Y-7000664D02*
X3985634Y-7010188D01*
X3985634Y-7010188D02*
X3995158Y-7019711D01*
X3995158Y-7019711D02*
X4004682Y-7038759D01*
X4004682Y-7038759D02*
X4014205Y-7076854D01*
X4014205Y-7076854D02*
X4014205Y-7124473D01*
X4014205Y-7124473D02*
X4004682Y-7162568D01*
X4004682Y-7162568D02*
X3995158Y-7181616D01*
X3995158Y-7181616D02*
X3985634Y-7191140D01*
X3985634Y-7191140D02*
X3966586Y-7200664D01*
X3966586Y-7200664D02*
X3947539Y-7200664D01*
X3947539Y-7200664D02*
X3928491Y-7191140D01*
X3928491Y-7191140D02*
X3918967Y-7181616D01*
X3918967Y-7181616D02*
X3909443Y-7162568D01*
X3909443Y-7162568D02*
X3899920Y-7124473D01*
X3899920Y-7124473D02*
X3899920Y-7076854D01*
X3899920Y-7076854D02*
X3909443Y-7038759D01*
X3909443Y-7038759D02*
X3918967Y-7019711D01*
X3918967Y-7019711D02*
X3928491Y-7010188D01*
X3928491Y-7010188D02*
X3947539Y-7000664D01*
X4099920Y-7200664D02*
X4099920Y-7067330D01*
X4099920Y-7086378D02*
X4109443Y-7076854D01*
X4109443Y-7076854D02*
X4128491Y-7067330D01*
X4128491Y-7067330D02*
X4157063Y-7067330D01*
X4157063Y-7067330D02*
X4176110Y-7076854D01*
X4176110Y-7076854D02*
X4185634Y-7095902D01*
X4185634Y-7095902D02*
X4185634Y-7200664D01*
X4185634Y-7095902D02*
X4195158Y-7076854D01*
X4195158Y-7076854D02*
X4214205Y-7067330D01*
X4214205Y-7067330D02*
X4242777Y-7067330D01*
X4242777Y-7067330D02*
X4261825Y-7076854D01*
X4261825Y-7076854D02*
X4271348Y-7095902D01*
X4271348Y-7095902D02*
X4271348Y-7200664D01*
X4366586Y-7200664D02*
X4366586Y-7067330D01*
X4366586Y-7086378D02*
X4376110Y-7076854D01*
X4376110Y-7076854D02*
X4395158Y-7067330D01*
X4395158Y-7067330D02*
X4423729Y-7067330D01*
X4423729Y-7067330D02*
X4442777Y-7076854D01*
X4442777Y-7076854D02*
X4452301Y-7095902D01*
X4452301Y-7095902D02*
X4452301Y-7200664D01*
X4452301Y-7095902D02*
X4461825Y-7076854D01*
X4461825Y-7076854D02*
X4480872Y-7067330D01*
X4480872Y-7067330D02*
X4509444Y-7067330D01*
X4509444Y-7067330D02*
X4528491Y-7076854D01*
X4528491Y-7076854D02*
X4538015Y-7095902D01*
X4538015Y-7095902D02*
X4538015Y-7200664D01*
X4928491Y-6991140D02*
X4757063Y-7248283D01*
X5185634Y-7000664D02*
X5204682Y-7000664D01*
X5204682Y-7000664D02*
X5223729Y-7010188D01*
X5223729Y-7010188D02*
X5233253Y-7019711D01*
X5233253Y-7019711D02*
X5242777Y-7038759D01*
X5242777Y-7038759D02*
X5252301Y-7076854D01*
X5252301Y-7076854D02*
X5252301Y-7124473D01*
X5252301Y-7124473D02*
X5242777Y-7162568D01*
X5242777Y-7162568D02*
X5233253Y-7181616D01*
X5233253Y-7181616D02*
X5223729Y-7191140D01*
X5223729Y-7191140D02*
X5204682Y-7200664D01*
X5204682Y-7200664D02*
X5185634Y-7200664D01*
X5185634Y-7200664D02*
X5166587Y-7191140D01*
X5166587Y-7191140D02*
X5157063Y-7181616D01*
X5157063Y-7181616D02*
X5147539Y-7162568D01*
X5147539Y-7162568D02*
X5138015Y-7124473D01*
X5138015Y-7124473D02*
X5138015Y-7076854D01*
X5138015Y-7076854D02*
X5147539Y-7038759D01*
X5147539Y-7038759D02*
X5157063Y-7019711D01*
X5157063Y-7019711D02*
X5166587Y-7010188D01*
X5166587Y-7010188D02*
X5185634Y-7000664D01*
X5338015Y-7181616D02*
X5347539Y-7191140D01*
X5347539Y-7191140D02*
X5338015Y-7200664D01*
X5338015Y-7200664D02*
X5328491Y-7191140D01*
X5328491Y-7191140D02*
X5338015Y-7181616D01*
X5338015Y-7181616D02*
X5338015Y-7200664D01*
X5471348Y-7000664D02*
X5490396Y-7000664D01*
X5490396Y-7000664D02*
X5509444Y-7010188D01*
X5509444Y-7010188D02*
X5518968Y-7019711D01*
X5518968Y-7019711D02*
X5528491Y-7038759D01*
X5528491Y-7038759D02*
X5538015Y-7076854D01*
X5538015Y-7076854D02*
X5538015Y-7124473D01*
X5538015Y-7124473D02*
X5528491Y-7162568D01*
X5528491Y-7162568D02*
X5518968Y-7181616D01*
X5518968Y-7181616D02*
X5509444Y-7191140D01*
X5509444Y-7191140D02*
X5490396Y-7200664D01*
X5490396Y-7200664D02*
X5471348Y-7200664D01*
X5471348Y-7200664D02*
X5452301Y-7191140D01*
X5452301Y-7191140D02*
X5442777Y-7181616D01*
X5442777Y-7181616D02*
X5433253Y-7162568D01*
X5433253Y-7162568D02*
X5423729Y-7124473D01*
X5423729Y-7124473D02*
X5423729Y-7076854D01*
X5423729Y-7076854D02*
X5433253Y-7038759D01*
X5433253Y-7038759D02*
X5442777Y-7019711D01*
X5442777Y-7019711D02*
X5452301Y-7010188D01*
X5452301Y-7010188D02*
X5471348Y-7000664D01*
X5614206Y-7019711D02*
X5623729Y-7010188D01*
X5623729Y-7010188D02*
X5642777Y-7000664D01*
X5642777Y-7000664D02*
X5690396Y-7000664D01*
X5690396Y-7000664D02*
X5709444Y-7010188D01*
X5709444Y-7010188D02*
X5718967Y-7019711D01*
X5718967Y-7019711D02*
X5728491Y-7038759D01*
X5728491Y-7038759D02*
X5728491Y-7057807D01*
X5728491Y-7057807D02*
X5718967Y-7086378D01*
X5718967Y-7086378D02*
X5604682Y-7200664D01*
X5604682Y-7200664D02*
X5728491Y-7200664D01*
X5795158Y-7000664D02*
X5918967Y-7000664D01*
X5918967Y-7000664D02*
X5852301Y-7076854D01*
X5852301Y-7076854D02*
X5880872Y-7076854D01*
X5880872Y-7076854D02*
X5899920Y-7086378D01*
X5899920Y-7086378D02*
X5909444Y-7095902D01*
X5909444Y-7095902D02*
X5918967Y-7114949D01*
X5918967Y-7114949D02*
X5918967Y-7162568D01*
X5918967Y-7162568D02*
X5909444Y-7181616D01*
X5909444Y-7181616D02*
X5899920Y-7191140D01*
X5899920Y-7191140D02*
X5880872Y-7200664D01*
X5880872Y-7200664D02*
X5823729Y-7200664D01*
X5823729Y-7200664D02*
X5804682Y-7191140D01*
X5804682Y-7191140D02*
X5795158Y-7181616D01*
X6090396Y-7000664D02*
X6052301Y-7000664D01*
X6052301Y-7000664D02*
X6033253Y-7010188D01*
X6033253Y-7010188D02*
X6023729Y-7019711D01*
X6023729Y-7019711D02*
X6004682Y-7048283D01*
X6004682Y-7048283D02*
X5995158Y-7086378D01*
X5995158Y-7086378D02*
X5995158Y-7162568D01*
X5995158Y-7162568D02*
X6004682Y-7181616D01*
X6004682Y-7181616D02*
X6014206Y-7191140D01*
X6014206Y-7191140D02*
X6033253Y-7200664D01*
X6033253Y-7200664D02*
X6071348Y-7200664D01*
X6071348Y-7200664D02*
X6090396Y-7191140D01*
X6090396Y-7191140D02*
X6099920Y-7181616D01*
X6099920Y-7181616D02*
X6109444Y-7162568D01*
X6109444Y-7162568D02*
X6109444Y-7114949D01*
X6109444Y-7114949D02*
X6099920Y-7095902D01*
X6099920Y-7095902D02*
X6090396Y-7086378D01*
X6090396Y-7086378D02*
X6071348Y-7076854D01*
X6071348Y-7076854D02*
X6033253Y-7076854D01*
X6033253Y-7076854D02*
X6014206Y-7086378D01*
X6014206Y-7086378D02*
X6004682Y-7095902D01*
X6004682Y-7095902D02*
X5995158Y-7114949D01*
X6185634Y-7000664D02*
X6185634Y-7038759D01*
X6261825Y-7000664D02*
X6261825Y-7038759D01*
X6557063Y-7276854D02*
X6547539Y-7267330D01*
X6547539Y-7267330D02*
X6528491Y-7238759D01*
X6528491Y-7238759D02*
X6518968Y-7219711D01*
X6518968Y-7219711D02*
X6509444Y-7191140D01*
X6509444Y-7191140D02*
X6499920Y-7143521D01*
X6499920Y-7143521D02*
X6499920Y-7105426D01*
X6499920Y-7105426D02*
X6509444Y-7057807D01*
X6509444Y-7057807D02*
X6518968Y-7029235D01*
X6518968Y-7029235D02*
X6528491Y-7010188D01*
X6528491Y-7010188D02*
X6547539Y-6981616D01*
X6547539Y-6981616D02*
X6557063Y-6972092D01*
X6671348Y-7000664D02*
X6690396Y-7000664D01*
X6690396Y-7000664D02*
X6709444Y-7010188D01*
X6709444Y-7010188D02*
X6718968Y-7019711D01*
X6718968Y-7019711D02*
X6728491Y-7038759D01*
X6728491Y-7038759D02*
X6738015Y-7076854D01*
X6738015Y-7076854D02*
X6738015Y-7124473D01*
X6738015Y-7124473D02*
X6728491Y-7162568D01*
X6728491Y-7162568D02*
X6718968Y-7181616D01*
X6718968Y-7181616D02*
X6709444Y-7191140D01*
X6709444Y-7191140D02*
X6690396Y-7200664D01*
X6690396Y-7200664D02*
X6671348Y-7200664D01*
X6671348Y-7200664D02*
X6652301Y-7191140D01*
X6652301Y-7191140D02*
X6642777Y-7181616D01*
X6642777Y-7181616D02*
X6633253Y-7162568D01*
X6633253Y-7162568D02*
X6623729Y-7124473D01*
X6623729Y-7124473D02*
X6623729Y-7076854D01*
X6623729Y-7076854D02*
X6633253Y-7038759D01*
X6633253Y-7038759D02*
X6642777Y-7019711D01*
X6642777Y-7019711D02*
X6652301Y-7010188D01*
X6652301Y-7010188D02*
X6671348Y-7000664D01*
X6976110Y-7200664D02*
X6976110Y-7000664D01*
X7061825Y-7200664D02*
X7061825Y-7095902D01*
X7061825Y-7095902D02*
X7052301Y-7076854D01*
X7052301Y-7076854D02*
X7033253Y-7067330D01*
X7033253Y-7067330D02*
X7004682Y-7067330D01*
X7004682Y-7067330D02*
X6985634Y-7076854D01*
X6985634Y-7076854D02*
X6976110Y-7086378D01*
X7185634Y-7200664D02*
X7166587Y-7191140D01*
X7166587Y-7191140D02*
X7157063Y-7181616D01*
X7157063Y-7181616D02*
X7147539Y-7162568D01*
X7147539Y-7162568D02*
X7147539Y-7105426D01*
X7147539Y-7105426D02*
X7157063Y-7086378D01*
X7157063Y-7086378D02*
X7166587Y-7076854D01*
X7166587Y-7076854D02*
X7185634Y-7067330D01*
X7185634Y-7067330D02*
X7214206Y-7067330D01*
X7214206Y-7067330D02*
X7233253Y-7076854D01*
X7233253Y-7076854D02*
X7242777Y-7086378D01*
X7242777Y-7086378D02*
X7252301Y-7105426D01*
X7252301Y-7105426D02*
X7252301Y-7162568D01*
X7252301Y-7162568D02*
X7242777Y-7181616D01*
X7242777Y-7181616D02*
X7233253Y-7191140D01*
X7233253Y-7191140D02*
X7214206Y-7200664D01*
X7214206Y-7200664D02*
X7185634Y-7200664D01*
X7366587Y-7200664D02*
X7347539Y-7191140D01*
X7347539Y-7191140D02*
X7338015Y-7172092D01*
X7338015Y-7172092D02*
X7338015Y-7000664D01*
X7518968Y-7191140D02*
X7499920Y-7200664D01*
X7499920Y-7200664D02*
X7461825Y-7200664D01*
X7461825Y-7200664D02*
X7442777Y-7191140D01*
X7442777Y-7191140D02*
X7433253Y-7172092D01*
X7433253Y-7172092D02*
X7433253Y-7095902D01*
X7433253Y-7095902D02*
X7442777Y-7076854D01*
X7442777Y-7076854D02*
X7461825Y-7067330D01*
X7461825Y-7067330D02*
X7499920Y-7067330D01*
X7499920Y-7067330D02*
X7518968Y-7076854D01*
X7518968Y-7076854D02*
X7528491Y-7095902D01*
X7528491Y-7095902D02*
X7528491Y-7114949D01*
X7528491Y-7114949D02*
X7433253Y-7133997D01*
X7604682Y-7191140D02*
X7623730Y-7200664D01*
X7623730Y-7200664D02*
X7661825Y-7200664D01*
X7661825Y-7200664D02*
X7680872Y-7191140D01*
X7680872Y-7191140D02*
X7690396Y-7172092D01*
X7690396Y-7172092D02*
X7690396Y-7162568D01*
X7690396Y-7162568D02*
X7680872Y-7143521D01*
X7680872Y-7143521D02*
X7661825Y-7133997D01*
X7661825Y-7133997D02*
X7633253Y-7133997D01*
X7633253Y-7133997D02*
X7614206Y-7124473D01*
X7614206Y-7124473D02*
X7604682Y-7105426D01*
X7604682Y-7105426D02*
X7604682Y-7095902D01*
X7604682Y-7095902D02*
X7614206Y-7076854D01*
X7614206Y-7076854D02*
X7633253Y-7067330D01*
X7633253Y-7067330D02*
X7661825Y-7067330D01*
X7661825Y-7067330D02*
X7680872Y-7076854D01*
X7928492Y-7124473D02*
X8080873Y-7124473D01*
X8004682Y-7200664D02*
X8004682Y-7048283D01*
X8414206Y-7067330D02*
X8414206Y-7200664D01*
X8366587Y-6991140D02*
X8318968Y-7133997D01*
X8318968Y-7133997D02*
X8442777Y-7133997D01*
X8661825Y-7191140D02*
X8680873Y-7200664D01*
X8680873Y-7200664D02*
X8718968Y-7200664D01*
X8718968Y-7200664D02*
X8738016Y-7191140D01*
X8738016Y-7191140D02*
X8747539Y-7172092D01*
X8747539Y-7172092D02*
X8747539Y-7162568D01*
X8747539Y-7162568D02*
X8738016Y-7143521D01*
X8738016Y-7143521D02*
X8718968Y-7133997D01*
X8718968Y-7133997D02*
X8690396Y-7133997D01*
X8690396Y-7133997D02*
X8671349Y-7124473D01*
X8671349Y-7124473D02*
X8661825Y-7105426D01*
X8661825Y-7105426D02*
X8661825Y-7095902D01*
X8661825Y-7095902D02*
X8671349Y-7076854D01*
X8671349Y-7076854D02*
X8690396Y-7067330D01*
X8690396Y-7067330D02*
X8718968Y-7067330D01*
X8718968Y-7067330D02*
X8738016Y-7076854D01*
X8861825Y-7200664D02*
X8842777Y-7191140D01*
X8842777Y-7191140D02*
X8833254Y-7172092D01*
X8833254Y-7172092D02*
X8833254Y-7000664D01*
X8966587Y-7200664D02*
X8947539Y-7191140D01*
X8947539Y-7191140D02*
X8938016Y-7181616D01*
X8938016Y-7181616D02*
X8928492Y-7162568D01*
X8928492Y-7162568D02*
X8928492Y-7105426D01*
X8928492Y-7105426D02*
X8938016Y-7086378D01*
X8938016Y-7086378D02*
X8947539Y-7076854D01*
X8947539Y-7076854D02*
X8966587Y-7067330D01*
X8966587Y-7067330D02*
X8995158Y-7067330D01*
X8995158Y-7067330D02*
X9014206Y-7076854D01*
X9014206Y-7076854D02*
X9023730Y-7086378D01*
X9023730Y-7086378D02*
X9033254Y-7105426D01*
X9033254Y-7105426D02*
X9033254Y-7162568D01*
X9033254Y-7162568D02*
X9023730Y-7181616D01*
X9023730Y-7181616D02*
X9014206Y-7191140D01*
X9014206Y-7191140D02*
X8995158Y-7200664D01*
X8995158Y-7200664D02*
X8966587Y-7200664D01*
X9090397Y-7067330D02*
X9166587Y-7067330D01*
X9118968Y-7000664D02*
X9118968Y-7172092D01*
X9118968Y-7172092D02*
X9128492Y-7191140D01*
X9128492Y-7191140D02*
X9147539Y-7200664D01*
X9147539Y-7200664D02*
X9166587Y-7200664D01*
X9223730Y-7191140D02*
X9242777Y-7200664D01*
X9242777Y-7200664D02*
X9280873Y-7200664D01*
X9280873Y-7200664D02*
X9299920Y-7191140D01*
X9299920Y-7191140D02*
X9309444Y-7172092D01*
X9309444Y-7172092D02*
X9309444Y-7162568D01*
X9309444Y-7162568D02*
X9299920Y-7143521D01*
X9299920Y-7143521D02*
X9280873Y-7133997D01*
X9280873Y-7133997D02*
X9252301Y-7133997D01*
X9252301Y-7133997D02*
X9233254Y-7124473D01*
X9233254Y-7124473D02*
X9223730Y-7105426D01*
X9223730Y-7105426D02*
X9223730Y-7095902D01*
X9223730Y-7095902D02*
X9233254Y-7076854D01*
X9233254Y-7076854D02*
X9252301Y-7067330D01*
X9252301Y-7067330D02*
X9280873Y-7067330D01*
X9280873Y-7067330D02*
X9299920Y-7076854D01*
X9376111Y-7276854D02*
X9385635Y-7267330D01*
X9385635Y-7267330D02*
X9404682Y-7238759D01*
X9404682Y-7238759D02*
X9414206Y-7219711D01*
X9414206Y-7219711D02*
X9423730Y-7191140D01*
X9423730Y-7191140D02*
X9433254Y-7143521D01*
X9433254Y-7143521D02*
X9433254Y-7105426D01*
X9433254Y-7105426D02*
X9423730Y-7057807D01*
X9423730Y-7057807D02*
X9414206Y-7029235D01*
X9414206Y-7029235D02*
X9404682Y-7010188D01*
X9404682Y-7010188D02*
X9385635Y-6981616D01*
X9385635Y-6981616D02*
X9376111Y-6972092D01*
M02*
