%TF.GenerationSoftware,KiCad,Pcbnew,8.0.6*%
%TF.CreationDate,2025-05-21T19:35:11-04:00*%
%TF.ProjectId,ir_controller,69725f63-6f6e-4747-926f-6c6c65722e6b,rev?*%
%TF.SameCoordinates,Original*%
%TF.FileFunction,Drillmap*%
%TF.FilePolarity,Positive*%
%FSLAX45Y45*%
G04 Gerber Fmt 4.5, Leading zero omitted, Abs format (unit mm)*
G04 Created by KiCad (PCBNEW 8.0.6) date 2025-05-21 19:35:11*
%MOMM*%
%LPD*%
G01*
G04 APERTURE LIST*
%ADD10C,0.050000*%
%ADD11C,0.200000*%
G04 APERTURE END LIST*
D10*
X5641340Y-2890520D02*
X6390640Y-3175000D01*
X6733540Y-3799840D01*
X6764020Y-5214620D01*
X5356860Y-5201920D01*
X5339080Y-6202680D01*
X4312920Y-6197600D01*
X4312920Y-5392420D01*
X2984500Y-5387340D01*
X3025140Y-3649980D01*
X4206240Y-3639820D01*
X4198620Y-2877820D01*
X5641340Y-2890520D01*
D11*
X3242777Y-6516664D02*
X3242777Y-6316664D01*
X3242777Y-6316664D02*
X3290396Y-6316664D01*
X3290396Y-6316664D02*
X3318967Y-6326188D01*
X3318967Y-6326188D02*
X3338015Y-6345235D01*
X3338015Y-6345235D02*
X3347539Y-6364283D01*
X3347539Y-6364283D02*
X3357062Y-6402378D01*
X3357062Y-6402378D02*
X3357062Y-6430949D01*
X3357062Y-6430949D02*
X3347539Y-6469045D01*
X3347539Y-6469045D02*
X3338015Y-6488092D01*
X3338015Y-6488092D02*
X3318967Y-6507140D01*
X3318967Y-6507140D02*
X3290396Y-6516664D01*
X3290396Y-6516664D02*
X3242777Y-6516664D01*
X3442777Y-6516664D02*
X3442777Y-6383330D01*
X3442777Y-6421426D02*
X3452301Y-6402378D01*
X3452301Y-6402378D02*
X3461824Y-6392854D01*
X3461824Y-6392854D02*
X3480872Y-6383330D01*
X3480872Y-6383330D02*
X3499920Y-6383330D01*
X3566586Y-6516664D02*
X3566586Y-6383330D01*
X3566586Y-6316664D02*
X3557062Y-6326188D01*
X3557062Y-6326188D02*
X3566586Y-6335711D01*
X3566586Y-6335711D02*
X3576110Y-6326188D01*
X3576110Y-6326188D02*
X3566586Y-6316664D01*
X3566586Y-6316664D02*
X3566586Y-6335711D01*
X3690396Y-6516664D02*
X3671348Y-6507140D01*
X3671348Y-6507140D02*
X3661824Y-6488092D01*
X3661824Y-6488092D02*
X3661824Y-6316664D01*
X3795158Y-6516664D02*
X3776110Y-6507140D01*
X3776110Y-6507140D02*
X3766586Y-6488092D01*
X3766586Y-6488092D02*
X3766586Y-6316664D01*
X4023729Y-6516664D02*
X4023729Y-6316664D01*
X4023729Y-6316664D02*
X4090396Y-6459521D01*
X4090396Y-6459521D02*
X4157062Y-6316664D01*
X4157062Y-6316664D02*
X4157062Y-6516664D01*
X4338015Y-6516664D02*
X4338015Y-6411902D01*
X4338015Y-6411902D02*
X4328491Y-6392854D01*
X4328491Y-6392854D02*
X4309444Y-6383330D01*
X4309444Y-6383330D02*
X4271348Y-6383330D01*
X4271348Y-6383330D02*
X4252301Y-6392854D01*
X4338015Y-6507140D02*
X4318967Y-6516664D01*
X4318967Y-6516664D02*
X4271348Y-6516664D01*
X4271348Y-6516664D02*
X4252301Y-6507140D01*
X4252301Y-6507140D02*
X4242777Y-6488092D01*
X4242777Y-6488092D02*
X4242777Y-6469045D01*
X4242777Y-6469045D02*
X4252301Y-6449997D01*
X4252301Y-6449997D02*
X4271348Y-6440473D01*
X4271348Y-6440473D02*
X4318967Y-6440473D01*
X4318967Y-6440473D02*
X4338015Y-6430949D01*
X4433253Y-6383330D02*
X4433253Y-6583330D01*
X4433253Y-6392854D02*
X4452301Y-6383330D01*
X4452301Y-6383330D02*
X4490396Y-6383330D01*
X4490396Y-6383330D02*
X4509444Y-6392854D01*
X4509444Y-6392854D02*
X4518967Y-6402378D01*
X4518967Y-6402378D02*
X4528491Y-6421426D01*
X4528491Y-6421426D02*
X4528491Y-6478568D01*
X4528491Y-6478568D02*
X4518967Y-6497616D01*
X4518967Y-6497616D02*
X4509444Y-6507140D01*
X4509444Y-6507140D02*
X4490396Y-6516664D01*
X4490396Y-6516664D02*
X4452301Y-6516664D01*
X4452301Y-6516664D02*
X4433253Y-6507140D01*
X4614205Y-6497616D02*
X4623729Y-6507140D01*
X4623729Y-6507140D02*
X4614205Y-6516664D01*
X4614205Y-6516664D02*
X4604682Y-6507140D01*
X4604682Y-6507140D02*
X4614205Y-6497616D01*
X4614205Y-6497616D02*
X4614205Y-6516664D01*
X4614205Y-6392854D02*
X4623729Y-6402378D01*
X4623729Y-6402378D02*
X4614205Y-6411902D01*
X4614205Y-6411902D02*
X4604682Y-6402378D01*
X4604682Y-6402378D02*
X4614205Y-6392854D01*
X4614205Y-6392854D02*
X4614205Y-6411902D01*
M02*
