%TF.GenerationSoftware,KiCad,Pcbnew,8.0.6*%
%TF.CreationDate,2025-05-21T19:35:09-04:00*%
%TF.ProjectId,ir_controller,69725f63-6f6e-4747-926f-6c6c65722e6b,rev?*%
%TF.SameCoordinates,Original*%
%TF.FileFunction,Copper,L1,Top*%
%TF.FilePolarity,Positive*%
%FSLAX46Y46*%
G04 Gerber Fmt 4.6, Leading zero omitted, Abs format (unit mm)*
G04 Created by KiCad (PCBNEW 8.0.6) date 2025-05-21 19:35:09*
%MOMM*%
%LPD*%
G01*
G04 APERTURE LIST*
G04 Aperture macros list*
%AMRoundRect*
0 Rectangle with rounded corners*
0 $1 Rounding radius*
0 $2 $3 $4 $5 $6 $7 $8 $9 X,Y pos of 4 corners*
0 Add a 4 corners polygon primitive as box body*
4,1,4,$2,$3,$4,$5,$6,$7,$8,$9,$2,$3,0*
0 Add four circle primitives for the rounded corners*
1,1,$1+$1,$2,$3*
1,1,$1+$1,$4,$5*
1,1,$1+$1,$6,$7*
1,1,$1+$1,$8,$9*
0 Add four rect primitives between the rounded corners*
20,1,$1+$1,$2,$3,$4,$5,0*
20,1,$1+$1,$4,$5,$6,$7,0*
20,1,$1+$1,$6,$7,$8,$9,0*
20,1,$1+$1,$8,$9,$2,$3,0*%
G04 Aperture macros list end*
%TA.AperFunction,SMDPad,CuDef*%
%ADD10R,1.800000X1.100000*%
%TD*%
%TA.AperFunction,SMDPad,CuDef*%
%ADD11RoundRect,0.375000X-0.625000X-0.375000X0.625000X-0.375000X0.625000X0.375000X-0.625000X0.375000X0*%
%TD*%
%TA.AperFunction,SMDPad,CuDef*%
%ADD12RoundRect,0.500000X-0.500000X-1.400000X0.500000X-1.400000X0.500000X1.400000X-0.500000X1.400000X0*%
%TD*%
%TA.AperFunction,SMDPad,CuDef*%
%ADD13R,0.720000X0.600000*%
%TD*%
%TA.AperFunction,SMDPad,CuDef*%
%ADD14RoundRect,0.050000X-0.387500X-0.050000X0.387500X-0.050000X0.387500X0.050000X-0.387500X0.050000X0*%
%TD*%
%TA.AperFunction,SMDPad,CuDef*%
%ADD15RoundRect,0.050000X-0.050000X-0.387500X0.050000X-0.387500X0.050000X0.387500X-0.050000X0.387500X0*%
%TD*%
%TA.AperFunction,HeatsinkPad*%
%ADD16R,3.200000X3.200000*%
%TD*%
%TA.AperFunction,SMDPad,CuDef*%
%ADD17RoundRect,0.200000X0.275000X-0.200000X0.275000X0.200000X-0.275000X0.200000X-0.275000X-0.200000X0*%
%TD*%
%TA.AperFunction,SMDPad,CuDef*%
%ADD18RoundRect,0.200000X0.200000X0.275000X-0.200000X0.275000X-0.200000X-0.275000X0.200000X-0.275000X0*%
%TD*%
%TA.AperFunction,SMDPad,CuDef*%
%ADD19RoundRect,0.200000X-0.200000X-0.275000X0.200000X-0.275000X0.200000X0.275000X-0.200000X0.275000X0*%
%TD*%
%TA.AperFunction,SMDPad,CuDef*%
%ADD20RoundRect,0.200000X-0.275000X0.200000X-0.275000X-0.200000X0.275000X-0.200000X0.275000X0.200000X0*%
%TD*%
%TA.AperFunction,SMDPad,CuDef*%
%ADD21RoundRect,0.175000X0.175000X0.425000X-0.175000X0.425000X-0.175000X-0.425000X0.175000X-0.425000X0*%
%TD*%
%TA.AperFunction,SMDPad,CuDef*%
%ADD22RoundRect,0.190000X-0.190000X-0.410000X0.190000X-0.410000X0.190000X0.410000X-0.190000X0.410000X0*%
%TD*%
%TA.AperFunction,SMDPad,CuDef*%
%ADD23RoundRect,0.200000X-0.200000X-0.400000X0.200000X-0.400000X0.200000X0.400000X-0.200000X0.400000X0*%
%TD*%
%TA.AperFunction,SMDPad,CuDef*%
%ADD24RoundRect,0.175000X-0.175000X-0.425000X0.175000X-0.425000X0.175000X0.425000X-0.175000X0.425000X0*%
%TD*%
%TA.AperFunction,SMDPad,CuDef*%
%ADD25RoundRect,0.190000X0.190000X0.410000X-0.190000X0.410000X-0.190000X-0.410000X0.190000X-0.410000X0*%
%TD*%
%TA.AperFunction,SMDPad,CuDef*%
%ADD26RoundRect,0.200000X0.200000X0.400000X-0.200000X0.400000X-0.200000X-0.400000X0.200000X-0.400000X0*%
%TD*%
%TA.AperFunction,ComponentPad*%
%ADD27O,1.100000X1.700000*%
%TD*%
%TA.AperFunction,SMDPad,CuDef*%
%ADD28RoundRect,0.218750X0.256250X-0.218750X0.256250X0.218750X-0.256250X0.218750X-0.256250X-0.218750X0*%
%TD*%
%TA.AperFunction,SMDPad,CuDef*%
%ADD29RoundRect,0.225000X0.225000X0.250000X-0.225000X0.250000X-0.225000X-0.250000X0.225000X-0.250000X0*%
%TD*%
%TA.AperFunction,SMDPad,CuDef*%
%ADD30RoundRect,0.225000X0.250000X-0.225000X0.250000X0.225000X-0.250000X0.225000X-0.250000X-0.225000X0*%
%TD*%
%TA.AperFunction,ViaPad*%
%ADD31C,0.600000*%
%TD*%
%TA.AperFunction,Conductor*%
%ADD32C,0.200000*%
%TD*%
G04 APERTURE END LIST*
D10*
%TO.P,SW1,1,1*%
%TO.N,GND*%
X36649800Y-48006000D03*
X42849800Y-48006000D03*
%TO.P,SW1,2,2*%
%TO.N,/BOOTSEL*%
X36649800Y-51706000D03*
X42849800Y-51706000D03*
%TD*%
%TO.P,SW2,1,1*%
%TO.N,/RUN*%
X45285800Y-56311800D03*
X51485800Y-56311800D03*
%TO.P,SW2,2,2*%
%TO.N,GND*%
X45285800Y-60011800D03*
X51485800Y-60011800D03*
%TD*%
D11*
%TO.P,U3,1,GND*%
%TO.N,GND*%
X32435400Y-39622100D03*
%TO.P,U3,2,VO*%
%TO.N,/+3.3V*%
X32435400Y-41922100D03*
D12*
X38735400Y-41922100D03*
D11*
%TO.P,U3,3,VI*%
%TO.N,VBUS*%
X32435400Y-44222100D03*
%TD*%
D13*
%TO.P,U2,1,SDA*%
%TO.N,/I2C_SDA*%
X59624800Y-40831000D03*
%TO.P,U2,2,INT*%
%TO.N,/GESTURE_INT*%
X60594800Y-40831000D03*
%TO.P,U2,3,LDR*%
%TO.N,unconnected-(U2-LDR-Pad3)*%
X61564800Y-40831000D03*
%TO.P,U2,4,LED_K*%
%TO.N,GND*%
X62534800Y-40831000D03*
%TO.P,U2,5,LED_A*%
%TO.N,/+3.3V*%
X62534800Y-42231000D03*
%TO.P,U2,6,GND*%
%TO.N,GND*%
X61564800Y-42231000D03*
%TO.P,U2,7,SCL*%
%TO.N,/I2C_SCL*%
X60594800Y-42231000D03*
%TO.P,U2,8,VDD*%
%TO.N,/+3.3V*%
X59624800Y-42231000D03*
%TD*%
D14*
%TO.P,U1,1,IOVDD*%
%TO.N,/+3.3V*%
X45038500Y-45342400D03*
%TO.P,U1,2,GPIO0*%
%TO.N,/BOOTSEL*%
X45038500Y-45742400D03*
%TO.P,U1,3,GPIO1*%
%TO.N,unconnected-(U1-GPIO1-Pad3)*%
X45038500Y-46142400D03*
%TO.P,U1,4,GPIO2*%
%TO.N,unconnected-(U1-GPIO2-Pad4)*%
X45038500Y-46542400D03*
%TO.P,U1,5,GPIO3*%
%TO.N,unconnected-(U1-GPIO3-Pad5)*%
X45038500Y-46942400D03*
%TO.P,U1,6,GPIO4*%
%TO.N,unconnected-(U1-GPIO4-Pad6)*%
X45038500Y-47342400D03*
%TO.P,U1,7,GPIO5*%
%TO.N,unconnected-(U1-GPIO5-Pad7)*%
X45038500Y-47742400D03*
%TO.P,U1,8,GPIO6*%
%TO.N,unconnected-(U1-GPIO6-Pad8)*%
X45038500Y-48142400D03*
%TO.P,U1,9,GPIO7*%
%TO.N,unconnected-(U1-GPIO7-Pad9)*%
X45038500Y-48542400D03*
%TO.P,U1,10,IOVDD*%
%TO.N,/+3.3V*%
X45038500Y-48942400D03*
%TO.P,U1,11,GPIO8*%
%TO.N,unconnected-(U1-GPIO8-Pad11)*%
X45038500Y-49342400D03*
%TO.P,U1,12,GPIO9*%
%TO.N,unconnected-(U1-GPIO9-Pad12)*%
X45038500Y-49742400D03*
%TO.P,U1,13,GPIO10*%
%TO.N,unconnected-(U1-GPIO10-Pad13)*%
X45038500Y-50142400D03*
%TO.P,U1,14,GPIO11*%
%TO.N,unconnected-(U1-GPIO11-Pad14)*%
X45038500Y-50542400D03*
D15*
%TO.P,U1,15,GPIO12*%
%TO.N,unconnected-(U1-GPIO12-Pad15)*%
X45876000Y-51379900D03*
%TO.P,U1,16,GPIO13*%
%TO.N,unconnected-(U1-GPIO13-Pad16)*%
X46276000Y-51379900D03*
%TO.P,U1,17,GPIO14*%
%TO.N,unconnected-(U1-GPIO14-Pad17)*%
X46676000Y-51379900D03*
%TO.P,U1,18,GPIO15*%
%TO.N,unconnected-(U1-GPIO15-Pad18)*%
X47076000Y-51379900D03*
%TO.P,U1,19,TESTEN*%
%TO.N,unconnected-(U1-TESTEN-Pad19)*%
X47476000Y-51379900D03*
%TO.P,U1,20,XIN*%
%TO.N,unconnected-(U1-XIN-Pad20)*%
X47876000Y-51379900D03*
%TO.P,U1,21,XOUT*%
%TO.N,unconnected-(U1-XOUT-Pad21)*%
X48276000Y-51379900D03*
%TO.P,U1,22,IOVDD*%
%TO.N,/+3.3V*%
X48676000Y-51379900D03*
%TO.P,U1,23,DVDD*%
%TO.N,/+1.1V*%
X49076000Y-51379900D03*
%TO.P,U1,24,SWCLK*%
%TO.N,unconnected-(U1-SWCLK-Pad24)*%
X49476000Y-51379900D03*
%TO.P,U1,25,SWD*%
%TO.N,unconnected-(U1-SWD-Pad25)*%
X49876000Y-51379900D03*
%TO.P,U1,26,RUN*%
%TO.N,/RUN*%
X50276000Y-51379900D03*
%TO.P,U1,27,GPIO16*%
%TO.N,unconnected-(U1-GPIO16-Pad27)*%
X50676000Y-51379900D03*
%TO.P,U1,28,GPIO17*%
%TO.N,unconnected-(U1-GPIO17-Pad28)*%
X51076000Y-51379900D03*
D14*
%TO.P,U1,29,GPIO18*%
%TO.N,unconnected-(U1-GPIO18-Pad29)*%
X51913500Y-50542400D03*
%TO.P,U1,30,GPIO19*%
%TO.N,/IR_OUT*%
X51913500Y-50142400D03*
%TO.P,U1,31,GPIO20*%
%TO.N,/I2C_SDA*%
X51913500Y-49742400D03*
%TO.P,U1,32,GPIO21*%
%TO.N,/I2C_SCL*%
X51913500Y-49342400D03*
%TO.P,U1,33,IOVDD*%
%TO.N,/+3.3V*%
X51913500Y-48942400D03*
%TO.P,U1,34,GPIO22*%
%TO.N,/GESTURE_INT*%
X51913500Y-48542400D03*
%TO.P,U1,35,GPIO23*%
%TO.N,/LED_STATUS*%
X51913500Y-48142400D03*
%TO.P,U1,36,GPIO24*%
%TO.N,unconnected-(U1-GPIO24-Pad36)*%
X51913500Y-47742400D03*
%TO.P,U1,37,GPIO25*%
%TO.N,unconnected-(U1-GPIO25-Pad37)*%
X51913500Y-47342400D03*
%TO.P,U1,38,GPIO26_ADC0*%
%TO.N,unconnected-(U1-GPIO26_ADC0-Pad38)*%
X51913500Y-46942400D03*
%TO.P,U1,39,GPIO27_ADC1*%
%TO.N,unconnected-(U1-GPIO27_ADC1-Pad39)*%
X51913500Y-46542400D03*
%TO.P,U1,40,GPIO28_ADC2*%
%TO.N,unconnected-(U1-GPIO28_ADC2-Pad40)*%
X51913500Y-46142400D03*
%TO.P,U1,41,GPIO29_ADC3*%
%TO.N,unconnected-(U1-GPIO29_ADC3-Pad41)*%
X51913500Y-45742400D03*
%TO.P,U1,42,IOVDD*%
%TO.N,/+3.3V*%
X51913500Y-45342400D03*
D15*
%TO.P,U1,43,ADC_AVDD*%
%TO.N,/+1.1V*%
X51076000Y-44504900D03*
%TO.P,U1,44,VREG_IN*%
%TO.N,VBUS*%
X50676000Y-44504900D03*
%TO.P,U1,45,VREG_VOUT*%
%TO.N,/+1.1V*%
X50276000Y-44504900D03*
%TO.P,U1,46,USB_DM*%
%TO.N,unconnected-(U1-USB_DM-Pad46)*%
X49876000Y-44504900D03*
%TO.P,U1,47,USB_DP*%
%TO.N,unconnected-(U1-USB_DP-Pad47)*%
X49476000Y-44504900D03*
%TO.P,U1,48,USB_VDD*%
%TO.N,/+3.3V*%
X49076000Y-44504900D03*
%TO.P,U1,49,IOVDD*%
X48676000Y-44504900D03*
%TO.P,U1,50,DVDD*%
%TO.N,/+1.1V*%
X48276000Y-44504900D03*
%TO.P,U1,51,QSPI_SD3*%
%TO.N,unconnected-(U1-QSPI_SD3-Pad51)*%
X47876000Y-44504900D03*
%TO.P,U1,52,QSPI_SCLK*%
%TO.N,unconnected-(U1-QSPI_SCLK-Pad52)*%
X47476000Y-44504900D03*
%TO.P,U1,53,QSPI_SD0*%
%TO.N,unconnected-(U1-QSPI_SD0-Pad53)*%
X47076000Y-44504900D03*
%TO.P,U1,54,QSPI_SD2*%
%TO.N,unconnected-(U1-QSPI_SD2-Pad54)*%
X46676000Y-44504900D03*
%TO.P,U1,55,QSPI_SD1*%
%TO.N,unconnected-(U1-QSPI_SD1-Pad55)*%
X46276000Y-44504900D03*
%TO.P,U1,56,QSPI_SS*%
%TO.N,unconnected-(U1-QSPI_SS-Pad56)*%
X45876000Y-44504900D03*
D16*
%TO.P,U1,57,GND*%
%TO.N,GND*%
X48476000Y-47942400D03*
%TD*%
D17*
%TO.P,R9,1*%
%TO.N,/IR_OUT*%
X54838600Y-50266600D03*
%TO.P,R9,2*%
%TO.N,Net-(D2-K)*%
X54838600Y-48616600D03*
%TD*%
D18*
%TO.P,R8,1*%
%TO.N,/SHIELD*%
X45211800Y-39993600D03*
%TO.P,R8,2*%
%TO.N,GND*%
X43561800Y-39993600D03*
%TD*%
%TO.P,R7,1*%
%TO.N,/CC2*%
X49212800Y-39993600D03*
%TO.P,R7,2*%
%TO.N,GND*%
X47562800Y-39993600D03*
%TD*%
%TO.P,R6,1*%
%TO.N,/CC1*%
X52985200Y-40019000D03*
%TO.P,R6,2*%
%TO.N,GND*%
X51335200Y-40019000D03*
%TD*%
D19*
%TO.P,R5,1*%
%TO.N,/+3.3V*%
X50342800Y-54356000D03*
%TO.P,R5,2*%
%TO.N,/RUN*%
X51992800Y-54356000D03*
%TD*%
D17*
%TO.P,R4,1*%
%TO.N,/BOOTSEL*%
X43281600Y-46100000D03*
%TO.P,R4,2*%
%TO.N,GND*%
X43281600Y-44450000D03*
%TD*%
%TO.P,R3,1*%
%TO.N,Net-(D1-K)*%
X54838600Y-46138600D03*
%TO.P,R3,2*%
%TO.N,/+3.3V*%
X54838600Y-44488600D03*
%TD*%
D19*
%TO.P,R2,1*%
%TO.N,/I2C_SCL*%
X60211200Y-45174400D03*
%TO.P,R2,2*%
%TO.N,/+3.3V*%
X61861200Y-45174400D03*
%TD*%
D20*
%TO.P,R1,1*%
%TO.N,/I2C_SDA*%
X56642000Y-40704000D03*
%TO.P,R1,2*%
%TO.N,/+3.3V*%
X56642000Y-42354000D03*
%TD*%
D21*
%TO.P,J1,A5,CC1*%
%TO.N,/CC1*%
X48834200Y-37585800D03*
D22*
%TO.P,J1,A9,VBUS*%
%TO.N,VBUS*%
X46814200Y-37585800D03*
D23*
%TO.P,J1,A12,GND*%
%TO.N,/A12*%
X45584200Y-37585800D03*
D24*
%TO.P,J1,B5,CC2*%
%TO.N,/CC2*%
X47834200Y-37585800D03*
D25*
%TO.P,J1,B9,VBUS*%
%TO.N,VBUS*%
X49854200Y-37585800D03*
D26*
%TO.P,J1,B12,GND*%
%TO.N,/A12*%
X51084200Y-37585800D03*
D27*
%TO.P,J1,S1,SHIELD*%
%TO.N,/SHIELD*%
X52654200Y-37505800D03*
X52654200Y-33705800D03*
X44014200Y-37505800D03*
X44014200Y-33705800D03*
%TD*%
D28*
%TO.P,D2,1,K*%
%TO.N,Net-(D2-K)*%
X57785000Y-50292000D03*
%TO.P,D2,2,A*%
%TO.N,GND*%
X57785000Y-48717000D03*
%TD*%
%TO.P,D1,1,K*%
%TO.N,Net-(D1-K)*%
X57785000Y-46050400D03*
%TO.P,D1,2,A*%
%TO.N,/LED_STATUS*%
X57785000Y-44475400D03*
%TD*%
D29*
%TO.P,C2,1*%
%TO.N,/+3.3V*%
X33579800Y-46951300D03*
%TO.P,C2,2*%
%TO.N,GND*%
X32029800Y-46951300D03*
%TD*%
D30*
%TO.P,C1,1*%
%TO.N,/+3.3V*%
X65633600Y-42304200D03*
%TO.P,C1,2*%
%TO.N,GND*%
X65633600Y-40754200D03*
%TD*%
D31*
%TO.N,/+3.3V*%
X38735400Y-41922100D03*
X43881600Y-42164000D03*
%TO.N,GND*%
X42849800Y-48006000D03*
X46634400Y-47942400D03*
%TO.N,/GESTURE_INT*%
X50976769Y-46059743D03*
%TO.N,/+3.3V*%
X49606200Y-45542200D03*
X51739800Y-44754800D03*
%TO.N,/+1.1V*%
X48256851Y-45332294D03*
X49682400Y-52781200D03*
%TO.N,GND*%
X53035200Y-50800000D03*
X48476000Y-47942400D03*
%TO.N,/GESTURE_INT*%
X60594800Y-40831000D03*
%TO.N,/I2C_SCL*%
X58270608Y-47628008D03*
X53517800Y-48615600D03*
%TO.N,/I2C_SDA*%
X53289200Y-49542400D03*
X52535685Y-42959885D03*
%TO.N,GND*%
X61934800Y-43434000D03*
X62534800Y-40831000D03*
%TO.N,VBUS*%
X32435400Y-44222100D03*
X46355000Y-39903400D03*
%TD*%
D32*
%TO.N,/+3.3V*%
X50376769Y-48105215D02*
X50376769Y-46109569D01*
X49809400Y-45542200D02*
X49606200Y-45542200D01*
X51213954Y-48942400D02*
X50376769Y-48105215D01*
X51379640Y-48942400D02*
X51213954Y-48942400D01*
X50376769Y-46109569D02*
X49809400Y-45542200D01*
X45038500Y-43320900D02*
X43881600Y-42164000D01*
X45038500Y-45342400D02*
X45038500Y-43320900D01*
X45572360Y-45342400D02*
X45038500Y-45342400D01*
X45776000Y-45546040D02*
X45572360Y-45342400D01*
X45776000Y-48738760D02*
X45776000Y-45546040D01*
X45572360Y-48942400D02*
X45776000Y-48738760D01*
X45038500Y-48942400D02*
X45572360Y-48942400D01*
%TO.N,GND*%
X46634400Y-47942400D02*
X48476000Y-47942400D01*
%TO.N,/+3.3V*%
X47418428Y-45342400D02*
X45038500Y-45342400D01*
X48008322Y-45932294D02*
X47418428Y-45342400D01*
X48505380Y-45932294D02*
X48008322Y-45932294D01*
X48856851Y-44685751D02*
X48856851Y-45580823D01*
X48856851Y-45580823D02*
X48505380Y-45932294D01*
X48676000Y-44504900D02*
X48856851Y-44685751D01*
%TO.N,/+1.1V*%
X48276000Y-45313145D02*
X48276000Y-44504900D01*
X48256851Y-45332294D02*
X48276000Y-45313145D01*
X50072360Y-43767400D02*
X48479640Y-43767400D01*
X48479640Y-43767400D02*
X48276000Y-43971040D01*
X50276000Y-43971040D02*
X50072360Y-43767400D01*
X48276000Y-43971040D02*
X48276000Y-44504900D01*
X50276000Y-44504900D02*
X50276000Y-43971040D01*
X50479640Y-45242400D02*
X50872360Y-45242400D01*
X50276000Y-45038760D02*
X50479640Y-45242400D01*
X50872360Y-45242400D02*
X51076000Y-45038760D01*
X51076000Y-45038760D02*
X51076000Y-44504900D01*
X50276000Y-44504900D02*
X50276000Y-45038760D01*
%TO.N,/GESTURE_INT*%
X50952400Y-48115160D02*
X51379640Y-48542400D01*
X50962365Y-46074147D02*
X50962365Y-47335635D01*
X50962365Y-47335635D02*
X50952400Y-47345600D01*
X50976769Y-46059743D02*
X50962365Y-46074147D01*
X50952400Y-47345600D02*
X50952400Y-48115160D01*
X51379640Y-48542400D02*
X51913500Y-48542400D01*
%TO.N,/+3.3V*%
X48676000Y-44504900D02*
X49076000Y-44504900D01*
X49076000Y-45038760D02*
X49076000Y-44504900D01*
X49606200Y-45542200D02*
X49579440Y-45542200D01*
X49579440Y-45542200D02*
X49076000Y-45038760D01*
X51913500Y-45342400D02*
X51913500Y-44928500D01*
X51913500Y-44928500D02*
X51739800Y-44754800D01*
%TO.N,/+1.1V*%
X49076000Y-52174800D02*
X49682400Y-52781200D01*
X49076000Y-51379900D02*
X49076000Y-52174800D01*
%TO.N,GND*%
X52692800Y-51142400D02*
X53035200Y-50800000D01*
X52692800Y-52037726D02*
X52692800Y-51142400D01*
%TO.N,/I2C_SCL*%
X52447360Y-49342400D02*
X51913500Y-49342400D01*
X53517800Y-48615600D02*
X53174160Y-48615600D01*
X53174160Y-48615600D02*
X52447360Y-49342400D01*
X60211200Y-45687416D02*
X58270608Y-47628008D01*
X60211200Y-45174400D02*
X60211200Y-45687416D01*
%TO.N,/LED_STATUS*%
X52447360Y-48142400D02*
X51913500Y-48142400D01*
X58560000Y-46490086D02*
X57145686Y-47904400D01*
X52685360Y-47904400D02*
X52447360Y-48142400D01*
X58560000Y-45250400D02*
X58560000Y-46490086D01*
X57785000Y-44475400D02*
X58560000Y-45250400D01*
X57145686Y-47904400D02*
X52685360Y-47904400D01*
%TO.N,/I2C_SDA*%
X53089200Y-49742400D02*
X51913500Y-49742400D01*
X53289200Y-49542400D02*
X53089200Y-49742400D01*
X54791570Y-40704000D02*
X52535685Y-42959885D01*
X56642000Y-40704000D02*
X54791570Y-40704000D01*
%TO.N,GND*%
X42506600Y-45225000D02*
X43281600Y-44450000D01*
X42506600Y-47662800D02*
X42506600Y-45225000D01*
X42849800Y-48006000D02*
X42506600Y-47662800D01*
%TO.N,/BOOTSEL*%
X43639200Y-45742400D02*
X45038500Y-45742400D01*
X43281600Y-46100000D02*
X43639200Y-45742400D01*
X44049800Y-46868200D02*
X43281600Y-46100000D01*
X44049800Y-50997422D02*
X44049800Y-46868200D01*
X43341222Y-51706000D02*
X44049800Y-50997422D01*
X42849800Y-51706000D02*
X43341222Y-51706000D01*
%TO.N,GND*%
X36649800Y-48006000D02*
X42849800Y-48006000D01*
X33084500Y-48006000D02*
X32029800Y-46951300D01*
X36649800Y-48006000D02*
X33084500Y-48006000D01*
%TO.N,/BOOTSEL*%
X42849800Y-51706000D02*
X36649800Y-51706000D01*
%TO.N,/+3.3V*%
X51379640Y-48942400D02*
X51913500Y-48942400D01*
X49679640Y-49842400D02*
X50479640Y-49842400D01*
X50479640Y-49842400D02*
X51379640Y-48942400D01*
X48676000Y-50846040D02*
X49679640Y-49842400D01*
X48676000Y-51379900D02*
X48676000Y-50846040D01*
X48676000Y-52689200D02*
X48676000Y-51379900D01*
X50342800Y-54356000D02*
X48676000Y-52689200D01*
%TO.N,/RUN*%
X50276000Y-52639200D02*
X50276000Y-51379900D01*
X51992800Y-54356000D02*
X50276000Y-52639200D01*
X51485800Y-54863000D02*
X51992800Y-54356000D01*
X51485800Y-56311800D02*
X51485800Y-54863000D01*
X45285800Y-56311800D02*
X51485800Y-56311800D01*
%TO.N,GND*%
X51485800Y-60011800D02*
X45285800Y-60011800D01*
X52692800Y-59473600D02*
X52154600Y-60011800D01*
X53425888Y-51304638D02*
X52692800Y-52037726D01*
X52692800Y-52037726D02*
X52692800Y-59473600D01*
X58020645Y-51304638D02*
X53425888Y-51304638D01*
X52154600Y-60011800D02*
X51485800Y-60011800D01*
X59051623Y-50273660D02*
X58020645Y-51304638D01*
X59051623Y-49508624D02*
X59051623Y-50273660D01*
X58259999Y-48717000D02*
X59051623Y-49508624D01*
X57785000Y-48717000D02*
X58259999Y-48717000D01*
%TO.N,/IR_OUT*%
X54838600Y-50266600D02*
X54714400Y-50142400D01*
X54714400Y-50142400D02*
X51913500Y-50142400D01*
%TO.N,Net-(D2-K)*%
X56514000Y-50292000D02*
X54838600Y-48616600D01*
X57785000Y-50292000D02*
X56514000Y-50292000D01*
%TO.N,/+3.3V*%
X53984800Y-45342400D02*
X54838600Y-44488600D01*
X51913500Y-45342400D02*
X53984800Y-45342400D01*
X56642000Y-42685200D02*
X54838600Y-44488600D01*
X56642000Y-42354000D02*
X56642000Y-42685200D01*
%TO.N,Net-(D1-K)*%
X54926800Y-46050400D02*
X54838600Y-46138600D01*
X57785000Y-46050400D02*
X54926800Y-46050400D01*
%TO.N,GND*%
X61564800Y-43064000D02*
X61934800Y-43434000D01*
X61564800Y-42231000D02*
X61564800Y-43064000D01*
X61564800Y-42524400D02*
X61564800Y-42231000D01*
X61161200Y-42928000D02*
X61564800Y-42524400D01*
X61161200Y-45815799D02*
X61161200Y-42928000D01*
X58259999Y-48717000D02*
X61161200Y-45815799D01*
%TO.N,/+3.3V*%
X59624800Y-41941000D02*
X59624800Y-42231000D01*
X59934800Y-41631000D02*
X59624800Y-41941000D01*
X62224800Y-41631000D02*
X59934800Y-41631000D01*
X62534800Y-42231000D02*
X62534800Y-41941000D01*
X62534800Y-41941000D02*
X62224800Y-41631000D01*
%TO.N,/I2C_SCL*%
X60594800Y-44790800D02*
X60594800Y-42231000D01*
X60211200Y-45174400D02*
X60594800Y-44790800D01*
%TO.N,/+3.3V*%
X59501800Y-42354000D02*
X59624800Y-42231000D01*
X56642000Y-42354000D02*
X59501800Y-42354000D01*
%TO.N,/I2C_SDA*%
X56769000Y-40831000D02*
X56642000Y-40704000D01*
X59624800Y-40831000D02*
X56769000Y-40831000D01*
%TO.N,/+3.3V*%
X62534800Y-44500800D02*
X61861200Y-45174400D01*
X62534800Y-42231000D02*
X62534800Y-44500800D01*
X62608000Y-42304200D02*
X62534800Y-42231000D01*
X65633600Y-42304200D02*
X62608000Y-42304200D01*
%TO.N,GND*%
X62611600Y-40754200D02*
X62534800Y-40831000D01*
X65633600Y-40754200D02*
X62611600Y-40754200D01*
%TO.N,VBUS*%
X46814200Y-39444200D02*
X46355000Y-39903400D01*
X46814200Y-37585800D02*
X46814200Y-39444200D01*
%TO.N,GND*%
X43281600Y-41823800D02*
X43281600Y-44450000D01*
X44336800Y-40768600D02*
X43281600Y-41823800D01*
%TO.N,VBUS*%
X53695600Y-40951440D02*
X50676000Y-43971040D01*
X53695600Y-39541752D02*
X53695600Y-40951440D01*
X52914248Y-38760400D02*
X53695600Y-39541752D01*
X49854200Y-37668448D02*
X50946152Y-38760400D01*
X50676000Y-43971040D02*
X50676000Y-44504900D01*
X49854200Y-37585800D02*
X49854200Y-37668448D01*
X50946152Y-38760400D02*
X52914248Y-38760400D01*
%TO.N,GND*%
X44336800Y-40768600D02*
X43561800Y-39993600D01*
X47562800Y-39993600D02*
X46787800Y-40768600D01*
X46787800Y-40768600D02*
X44336800Y-40768600D01*
X48337800Y-40768600D02*
X47562800Y-39993600D01*
X50585600Y-40768600D02*
X48337800Y-40768600D01*
X51335200Y-40019000D02*
X50585600Y-40768600D01*
%TO.N,/CC2*%
X47834200Y-38615000D02*
X49212800Y-39993600D01*
X47834200Y-37585800D02*
X47834200Y-38615000D01*
%TO.N,/CC1*%
X52210200Y-39244000D02*
X52985200Y-40019000D01*
X49892400Y-39244000D02*
X52210200Y-39244000D01*
X48834200Y-38185800D02*
X49892400Y-39244000D01*
X48834200Y-37585800D02*
X48834200Y-38185800D01*
%TO.N,VBUS*%
X49854200Y-36985800D02*
X49554200Y-36685800D01*
X49854200Y-37585800D02*
X49854200Y-36985800D01*
X49554200Y-36685800D02*
X47457598Y-36685800D01*
X47457598Y-36685800D02*
X46814200Y-37329198D01*
X46814200Y-37329198D02*
X46814200Y-37585800D01*
%TO.N,/A12*%
X47065570Y-36036200D02*
X45584200Y-37517570D01*
X51084200Y-36985800D02*
X50134600Y-36036200D01*
X51084200Y-37585800D02*
X51084200Y-36985800D01*
X50134600Y-36036200D02*
X47065570Y-36036200D01*
X45584200Y-37517570D02*
X45584200Y-37585800D01*
%TO.N,/SHIELD*%
X44704000Y-37153352D02*
X44704000Y-39485800D01*
X46221152Y-35636200D02*
X44704000Y-37153352D01*
X50784600Y-35636200D02*
X46221152Y-35636200D01*
X44704000Y-39485800D02*
X45211800Y-39993600D01*
X52654200Y-37505800D02*
X50784600Y-35636200D01*
%TO.N,/+3.3V*%
X32435400Y-41922100D02*
X38735400Y-41922100D01*
X32181800Y-46176300D02*
X32804800Y-46176300D01*
X31098609Y-43094791D02*
X31098609Y-45093109D01*
X31098609Y-45093109D02*
X32181800Y-46176300D01*
X32804800Y-46176300D02*
X33579800Y-46951300D01*
X32271300Y-41922100D02*
X31098609Y-43094791D01*
X32435400Y-41922100D02*
X32271300Y-41922100D01*
%TO.N,GND*%
X30698609Y-45620109D02*
X32029800Y-46951300D01*
X30761183Y-40363611D02*
X30698609Y-43038655D01*
X31502694Y-39622100D02*
X30761183Y-40363611D01*
X30698609Y-43038655D02*
X30698609Y-45620109D01*
X32435400Y-39622100D02*
X31502694Y-39622100D01*
%TO.N,/SHIELD*%
X44014200Y-38796000D02*
X45211800Y-39993600D01*
X44014200Y-37505800D02*
X44014200Y-38796000D01*
X44014200Y-33705800D02*
X44014200Y-37505800D01*
X52654200Y-33705800D02*
X52654200Y-37505800D01*
%TD*%
M02*
