M48
; DRILL file {KiCad 8.0.6} date 2025-05-21T19:35:11-0400
; FORMAT={-:-/ absolute / metric / decimal}
; #@! TF.CreationDate,2025-05-21T19:35:11-04:00
; #@! TF.GenerationSoftware,Kicad,Pcbnew,8.0.6
; #@! TF.FileFunction,Plated,1,2,PTH
FMAT,2
METRIC
; #@! TA.AperFunction,Plated,PTH,ViaDrill
T1C0.300
; #@! TA.AperFunction,Plated,PTH,ComponentDrill
T2C0.600
%
G90
G05
T1
X32.435Y-44.222
X38.735Y-41.922
X42.85Y-48.006
X43.882Y-42.164
X46.355Y-39.903
X46.634Y-47.942
X48.257Y-45.332
X48.476Y-47.942
X49.606Y-45.542
X49.682Y-52.781
X50.977Y-46.06
X51.74Y-44.755
X52.536Y-42.96
X53.035Y-50.8
X53.289Y-49.542
X53.518Y-48.616
X58.271Y-47.628
X60.595Y-40.831
X61.935Y-43.434
X62.535Y-40.831
T2
G00X44.014Y-34.006
M15
G01X44.014Y-33.406
M16
G05
G00X44.014Y-37.806
M15
G01X44.014Y-37.206
M16
G05
G00X52.654Y-34.006
M15
G01X52.654Y-33.406
M16
G05
G00X52.654Y-37.806
M15
G01X52.654Y-37.206
M16
G05
M30
