%TF.GenerationSoftware,KiCad,Pcbnew,8.0.6*%
%TF.CreationDate,2025-05-21T19:35:09-04:00*%
%TF.ProjectId,ir_controller,69725f63-6f6e-4747-926f-6c6c65722e6b,rev?*%
%TF.SameCoordinates,Original*%
%TF.FileFunction,Copper,L2,Bot*%
%TF.FilePolarity,Positive*%
%FSLAX46Y46*%
G04 Gerber Fmt 4.6, Leading zero omitted, Abs format (unit mm)*
G04 Created by KiCad (PCBNEW 8.0.6) date 2025-05-21 19:35:09*
%MOMM*%
%LPD*%
G01*
G04 APERTURE LIST*
%TA.AperFunction,ComponentPad*%
%ADD10O,1.100000X1.700000*%
%TD*%
%TA.AperFunction,ViaPad*%
%ADD11C,0.600000*%
%TD*%
%TA.AperFunction,Conductor*%
%ADD12C,0.200000*%
%TD*%
G04 APERTURE END LIST*
D10*
%TO.P,J1,S1,SHIELD*%
%TO.N,/SHIELD*%
X52654200Y-37505800D03*
X52654200Y-33705800D03*
X44014200Y-37505800D03*
X44014200Y-33705800D03*
%TD*%
D11*
%TO.N,/+3.3V*%
X38735400Y-41922100D03*
X43881600Y-42164000D03*
%TO.N,GND*%
X42849800Y-48006000D03*
X46634400Y-47942400D03*
%TO.N,/GESTURE_INT*%
X50976769Y-46059743D03*
%TO.N,/+3.3V*%
X49606200Y-45542200D03*
X51739800Y-44754800D03*
%TO.N,/+1.1V*%
X48256851Y-45332294D03*
X49682400Y-52781200D03*
%TO.N,GND*%
X53035200Y-50800000D03*
X48476000Y-47942400D03*
%TO.N,/GESTURE_INT*%
X60594800Y-40831000D03*
%TO.N,/I2C_SCL*%
X58270608Y-47628008D03*
X53517800Y-48615600D03*
%TO.N,/I2C_SDA*%
X53289200Y-49542400D03*
X52535685Y-42959885D03*
%TO.N,GND*%
X61934800Y-43434000D03*
X62534800Y-40831000D03*
%TO.N,VBUS*%
X32435400Y-44222100D03*
X46355000Y-39903400D03*
%TD*%
D12*
%TO.N,/+3.3V*%
X38977300Y-42164000D02*
X38735400Y-41922100D01*
X43881600Y-42164000D02*
X38977300Y-42164000D01*
%TO.N,VBUS*%
X43788900Y-44222100D02*
X32435400Y-44222100D01*
X46355000Y-41656000D02*
X43788900Y-44222100D01*
X46355000Y-39903400D02*
X46355000Y-41656000D01*
%TO.N,GND*%
X46634400Y-47942400D02*
X46570800Y-48006000D01*
X46570800Y-48006000D02*
X42849800Y-48006000D01*
%TO.N,/+1.1V*%
X47876000Y-50974800D02*
X49682400Y-52781200D01*
X47876000Y-45713145D02*
X47876000Y-50974800D01*
X48256851Y-45332294D02*
X47876000Y-45713145D01*
%TO.N,/GESTURE_INT*%
X53816041Y-40831000D02*
X60594800Y-40831000D01*
X50977800Y-43669241D02*
X53816041Y-40831000D01*
X50977800Y-46177200D02*
X50977800Y-43669241D01*
%TO.N,/+3.3V*%
X50723800Y-46659800D02*
X49606200Y-45542200D01*
X51308000Y-46659800D02*
X50723800Y-46659800D01*
X51739800Y-46228000D02*
X51308000Y-46659800D01*
X51739800Y-44754800D02*
X51739800Y-46228000D01*
%TO.N,GND*%
X51333600Y-50800000D02*
X48476000Y-47942400D01*
X53035200Y-50800000D02*
X51333600Y-50800000D01*
%TO.N,/I2C_SCL*%
X57283016Y-48615600D02*
X53517800Y-48615600D01*
X58270608Y-47628008D02*
X57283016Y-48615600D01*
%TO.N,/I2C_SDA*%
X52535685Y-42959885D02*
X52535685Y-48788885D01*
X52535685Y-48788885D02*
X53289200Y-49542400D01*
%TO.N,GND*%
X61934800Y-43434000D02*
X62534800Y-42834000D01*
X62534800Y-42834000D02*
X62534800Y-40831000D01*
%TD*%
M02*
